%TF.GenerationSoftware,KiCad,Pcbnew,7.0.6*%
%TF.CreationDate,2024-09-24T20:19:06-04:00*%
%TF.ProjectId,ESP32_Temp_Humidity,45535033-325f-4546-956d-705f48756d69,rev?*%
%TF.SameCoordinates,Original*%
%TF.FileFunction,Legend,Bot*%
%TF.FilePolarity,Positive*%
%FSLAX46Y46*%
G04 Gerber Fmt 4.6, Leading zero omitted, Abs format (unit mm)*
G04 Created by KiCad (PCBNEW 7.0.6) date 2024-09-24 20:19:06*
%MOMM*%
%LPD*%
G01*
G04 APERTURE LIST*
%ADD10C,0.279400*%
%ADD11C,0.200000*%
G04 APERTURE END LIST*
D10*
G36*
X134857692Y-77654322D02*
G01*
X134873202Y-77743036D01*
X134880641Y-77782314D01*
X134888147Y-77821204D01*
X134895719Y-77859706D01*
X134903358Y-77897820D01*
X134911064Y-77935547D01*
X134918836Y-77972886D01*
X134926675Y-78009837D01*
X134934580Y-78046400D01*
X134942553Y-78082576D01*
X134950591Y-78118364D01*
X134958697Y-78153764D01*
X134966869Y-78188777D01*
X134975108Y-78223402D01*
X134983413Y-78257639D01*
X134991785Y-78291488D01*
X135000224Y-78324950D01*
X135008729Y-78358024D01*
X135017301Y-78390710D01*
X135025940Y-78423008D01*
X135034645Y-78454919D01*
X135043417Y-78486442D01*
X135052256Y-78517577D01*
X135061161Y-78548324D01*
X135070133Y-78578684D01*
X135079171Y-78608656D01*
X135088276Y-78638240D01*
X135097448Y-78667436D01*
X135106687Y-78696245D01*
X135115992Y-78724666D01*
X135125363Y-78752700D01*
X135134802Y-78780345D01*
X135144307Y-78807603D01*
X135153901Y-78834603D01*
X135163686Y-78861551D01*
X135173661Y-78888449D01*
X135183826Y-78915296D01*
X135194182Y-78942093D01*
X135204728Y-78968838D01*
X135215464Y-78995532D01*
X135226390Y-79022176D01*
X135237507Y-79048768D01*
X135248813Y-79075310D01*
X135260310Y-79101801D01*
X135271998Y-79128241D01*
X135283875Y-79154630D01*
X135295943Y-79180968D01*
X135308201Y-79207255D01*
X135320649Y-79233492D01*
X135333287Y-79259677D01*
X135346116Y-79285812D01*
X135359134Y-79311895D01*
X135372344Y-79337928D01*
X135385743Y-79363910D01*
X135399332Y-79389841D01*
X135413112Y-79415721D01*
X135427082Y-79441550D01*
X135441242Y-79467329D01*
X135455593Y-79493056D01*
X135470133Y-79518733D01*
X135484864Y-79544358D01*
X135499786Y-79569933D01*
X135514897Y-79595457D01*
X135530199Y-79620930D01*
X135545690Y-79646352D01*
X135597337Y-79729596D01*
X135649293Y-79810197D01*
X135701560Y-79888156D01*
X135754137Y-79963472D01*
X135807024Y-80036145D01*
X135860221Y-80106175D01*
X135913729Y-80173563D01*
X135967547Y-80238308D01*
X136021674Y-80300411D01*
X136076113Y-80359870D01*
X136130861Y-80416688D01*
X136185919Y-80470862D01*
X136241288Y-80522394D01*
X136296967Y-80571283D01*
X136352956Y-80617530D01*
X136409255Y-80661134D01*
X136465864Y-80702095D01*
X136522784Y-80740414D01*
X136580014Y-80776089D01*
X136637554Y-80809123D01*
X136695404Y-80839513D01*
X136753564Y-80867261D01*
X136812035Y-80892366D01*
X136870815Y-80914829D01*
X136929906Y-80934649D01*
X136989307Y-80951826D01*
X137049019Y-80966361D01*
X137109040Y-80978253D01*
X137169372Y-80987502D01*
X137230013Y-80994109D01*
X137290965Y-80998073D01*
X137352228Y-80999394D01*
X137387543Y-80998985D01*
X137422766Y-80997756D01*
X137457898Y-80995708D01*
X137492937Y-80992841D01*
X137527884Y-80989156D01*
X137562739Y-80984651D01*
X137597502Y-80979326D01*
X137632173Y-80973183D01*
X137666751Y-80966221D01*
X137701238Y-80958440D01*
X137735633Y-80949839D01*
X137769935Y-80940420D01*
X137804146Y-80930181D01*
X137838264Y-80919123D01*
X137872290Y-80907246D01*
X137906224Y-80894551D01*
X137939671Y-80881244D01*
X137972391Y-80867380D01*
X138004384Y-80852959D01*
X138035650Y-80837980D01*
X138066189Y-80822444D01*
X138096001Y-80806350D01*
X138125086Y-80789700D01*
X138153444Y-80772491D01*
X138181075Y-80754726D01*
X138207979Y-80736403D01*
X138234156Y-80717523D01*
X138259606Y-80698085D01*
X138284329Y-80678090D01*
X138308325Y-80657537D01*
X138331594Y-80636428D01*
X138354136Y-80614761D01*
X138386515Y-80580809D01*
X138416804Y-80545802D01*
X138445005Y-80509738D01*
X138471116Y-80472617D01*
X138495139Y-80434439D01*
X138517072Y-80395205D01*
X138536917Y-80354915D01*
X138554673Y-80313568D01*
X138570340Y-80271164D01*
X138583918Y-80227704D01*
X138595407Y-80183187D01*
X138604807Y-80137613D01*
X138612119Y-80090983D01*
X138617341Y-80043297D01*
X138620474Y-79994553D01*
X138621519Y-79944754D01*
X138620285Y-79895485D01*
X138616585Y-79847248D01*
X138610417Y-79800043D01*
X138601783Y-79753871D01*
X138590682Y-79708732D01*
X138577113Y-79664624D01*
X138561078Y-79621549D01*
X138542576Y-79579507D01*
X138521607Y-79538496D01*
X138498170Y-79498518D01*
X138472267Y-79459573D01*
X138443897Y-79421660D01*
X138413060Y-79384779D01*
X138379756Y-79348930D01*
X138362179Y-79331393D01*
X138343985Y-79314114D01*
X138325174Y-79297093D01*
X138305747Y-79280330D01*
X138285860Y-79263956D01*
X138265672Y-79248102D01*
X138245182Y-79232768D01*
X138224390Y-79217953D01*
X138203297Y-79203658D01*
X138181902Y-79189883D01*
X138160205Y-79176628D01*
X138138206Y-79163893D01*
X138115906Y-79151678D01*
X138093304Y-79139982D01*
X138070401Y-79128806D01*
X138047195Y-79118150D01*
X138023688Y-79108014D01*
X137999879Y-79098397D01*
X137975769Y-79089301D01*
X137951357Y-79080724D01*
X137926643Y-79072667D01*
X137901627Y-79065130D01*
X137876310Y-79058112D01*
X137850691Y-79051615D01*
X137824770Y-79045637D01*
X137798548Y-79040179D01*
X137772023Y-79035241D01*
X137745198Y-79030822D01*
X137718070Y-79026924D01*
X137690641Y-79023545D01*
X137662910Y-79020686D01*
X137634877Y-79018347D01*
X137606543Y-79016527D01*
X137577907Y-79015228D01*
X137548969Y-79014448D01*
X137519729Y-79014188D01*
X137473287Y-79014767D01*
X137426549Y-79016503D01*
X137379518Y-79019396D01*
X137332191Y-79023446D01*
X137284571Y-79028653D01*
X137236656Y-79035017D01*
X137188446Y-79042538D01*
X137139942Y-79051217D01*
X137091144Y-79061053D01*
X137042051Y-79072046D01*
X136992664Y-79084196D01*
X136942983Y-79097503D01*
X136893006Y-79111967D01*
X136842736Y-79127589D01*
X136792171Y-79144368D01*
X136741312Y-79162303D01*
X136690158Y-79181396D01*
X136638710Y-79201646D01*
X136586967Y-79223054D01*
X136534930Y-79245618D01*
X136482598Y-79269340D01*
X136429972Y-79294218D01*
X136377052Y-79320254D01*
X136323837Y-79347447D01*
X136270327Y-79375797D01*
X136216524Y-79405304D01*
X136162426Y-79435969D01*
X136108033Y-79467790D01*
X136053346Y-79500769D01*
X135998364Y-79534905D01*
X135943088Y-79570198D01*
X135887518Y-79606648D01*
X136117057Y-79757400D01*
X136139472Y-79742556D01*
X136162049Y-79727881D01*
X136184789Y-79713374D01*
X136207691Y-79699036D01*
X136230755Y-79684866D01*
X136253981Y-79670864D01*
X136277370Y-79657031D01*
X136300922Y-79643367D01*
X136324635Y-79629871D01*
X136348511Y-79616543D01*
X136372550Y-79603383D01*
X136396750Y-79590392D01*
X136421114Y-79577570D01*
X136445639Y-79564916D01*
X136470327Y-79552430D01*
X136495177Y-79540113D01*
X136520190Y-79527964D01*
X136545365Y-79515984D01*
X136570702Y-79504172D01*
X136596202Y-79492528D01*
X136621864Y-79481053D01*
X136647688Y-79469746D01*
X136673675Y-79458608D01*
X136699824Y-79447638D01*
X136726135Y-79436836D01*
X136752609Y-79426203D01*
X136779245Y-79415739D01*
X136806044Y-79405443D01*
X136833005Y-79395315D01*
X136860128Y-79385355D01*
X136887414Y-79375565D01*
X136914862Y-79365942D01*
X136942277Y-79356515D01*
X136969462Y-79347386D01*
X136996419Y-79338558D01*
X137023147Y-79330028D01*
X137049646Y-79321798D01*
X137075915Y-79313867D01*
X137101956Y-79306235D01*
X137127768Y-79298903D01*
X137153350Y-79291869D01*
X137178704Y-79285135D01*
X137203829Y-79278701D01*
X137228724Y-79272566D01*
X137253391Y-79266730D01*
X137277829Y-79261193D01*
X137326017Y-79251017D01*
X137373289Y-79242039D01*
X137419645Y-79234257D01*
X137465085Y-79227673D01*
X137509610Y-79222286D01*
X137553218Y-79218096D01*
X137595910Y-79215103D01*
X137637686Y-79213307D01*
X137678546Y-79212709D01*
X137722106Y-79213426D01*
X137764691Y-79215578D01*
X137806302Y-79219165D01*
X137846939Y-79224186D01*
X137886602Y-79230642D01*
X137925291Y-79238532D01*
X137963006Y-79247857D01*
X137999746Y-79258617D01*
X138035512Y-79270811D01*
X138070304Y-79284440D01*
X138104122Y-79299504D01*
X138136966Y-79316002D01*
X138168835Y-79333934D01*
X138199730Y-79353302D01*
X138229651Y-79374104D01*
X138258598Y-79396340D01*
X138286094Y-79419680D01*
X138311815Y-79443790D01*
X138335762Y-79468670D01*
X138357936Y-79494321D01*
X138378336Y-79520743D01*
X138396962Y-79547935D01*
X138413814Y-79575898D01*
X138428892Y-79604632D01*
X138442196Y-79634136D01*
X138453726Y-79664411D01*
X138463483Y-79695457D01*
X138471465Y-79727273D01*
X138477674Y-79759859D01*
X138482108Y-79793217D01*
X138484769Y-79827345D01*
X138485656Y-79862243D01*
X138484838Y-79896663D01*
X138482385Y-79931062D01*
X138478295Y-79965438D01*
X138472570Y-79999793D01*
X138465209Y-80034125D01*
X138456212Y-80068436D01*
X138445580Y-80102726D01*
X138433312Y-80136993D01*
X138419408Y-80171238D01*
X138409230Y-80194057D01*
X138398325Y-80216865D01*
X138392600Y-80228266D01*
X138380689Y-80250868D01*
X138368221Y-80273078D01*
X138355195Y-80294896D01*
X138341612Y-80316321D01*
X138327472Y-80337353D01*
X138312775Y-80357992D01*
X138297520Y-80378239D01*
X138281707Y-80398094D01*
X138265338Y-80417556D01*
X138248410Y-80436625D01*
X138230926Y-80455302D01*
X138212884Y-80473586D01*
X138194285Y-80491478D01*
X138175128Y-80508977D01*
X138155415Y-80526083D01*
X138135143Y-80542797D01*
X138108093Y-80563718D01*
X138079288Y-80583909D01*
X138048726Y-80603369D01*
X138016409Y-80622098D01*
X137993889Y-80634179D01*
X137970588Y-80645934D01*
X137946508Y-80657365D01*
X137921646Y-80668472D01*
X137896005Y-80679253D01*
X137869583Y-80689710D01*
X137842381Y-80699842D01*
X137814399Y-80709649D01*
X137785636Y-80719132D01*
X137756093Y-80728290D01*
X137726167Y-80737079D01*
X137696256Y-80745301D01*
X137666359Y-80752957D01*
X137636477Y-80760045D01*
X137606609Y-80766566D01*
X137576756Y-80772520D01*
X137546917Y-80777908D01*
X137517093Y-80782728D01*
X137487283Y-80786981D01*
X137457488Y-80790666D01*
X137427708Y-80793785D01*
X137397942Y-80796337D01*
X137368190Y-80798322D01*
X137338453Y-80799739D01*
X137308731Y-80800590D01*
X137279023Y-80800874D01*
X137230035Y-80800118D01*
X137181479Y-80797852D01*
X137133353Y-80794074D01*
X137085660Y-80788786D01*
X137038397Y-80781987D01*
X136991566Y-80773676D01*
X136945166Y-80763855D01*
X136899198Y-80752523D01*
X136853660Y-80739680D01*
X136808555Y-80725326D01*
X136763880Y-80709461D01*
X136719637Y-80692085D01*
X136675826Y-80673198D01*
X136632445Y-80652800D01*
X136589496Y-80630891D01*
X136546979Y-80607471D01*
X136504892Y-80582540D01*
X136463237Y-80556099D01*
X136422014Y-80528146D01*
X136381222Y-80498682D01*
X136340861Y-80467708D01*
X136300931Y-80435222D01*
X136261433Y-80401226D01*
X136222366Y-80365718D01*
X136183731Y-80328700D01*
X136145527Y-80290170D01*
X136107754Y-80250130D01*
X136070413Y-80208579D01*
X136033503Y-80165516D01*
X135997024Y-80120943D01*
X135960977Y-80074859D01*
X135925361Y-80027264D01*
X135898421Y-79989426D01*
X135871727Y-79950667D01*
X135845281Y-79910987D01*
X135819083Y-79870386D01*
X135793131Y-79828864D01*
X135767427Y-79786422D01*
X135754667Y-79764855D01*
X135741969Y-79743058D01*
X135729333Y-79721031D01*
X135716759Y-79698774D01*
X135704247Y-79676287D01*
X135691796Y-79653569D01*
X135679408Y-79630621D01*
X135667081Y-79607443D01*
X135654815Y-79584035D01*
X135642612Y-79560396D01*
X135630471Y-79536527D01*
X135618391Y-79512428D01*
X135606373Y-79488099D01*
X135594417Y-79463540D01*
X135582522Y-79438750D01*
X135570690Y-79413730D01*
X135558919Y-79388480D01*
X135547210Y-79363000D01*
X135535563Y-79337290D01*
X135523977Y-79311349D01*
X135512495Y-79285356D01*
X135501236Y-79259489D01*
X135490201Y-79233748D01*
X135479388Y-79208134D01*
X135468798Y-79182645D01*
X135458430Y-79157282D01*
X135448286Y-79132045D01*
X135438365Y-79106935D01*
X135428667Y-79081950D01*
X135419192Y-79057091D01*
X135409939Y-79032359D01*
X135400910Y-79007752D01*
X135392103Y-78983271D01*
X135383520Y-78958917D01*
X135375159Y-78934688D01*
X135367022Y-78910585D01*
X135359107Y-78886609D01*
X135351415Y-78862758D01*
X135343947Y-78839034D01*
X135329678Y-78791963D01*
X135316301Y-78745396D01*
X135303816Y-78699333D01*
X135292223Y-78653774D01*
X135281521Y-78608719D01*
X135271712Y-78564168D01*
X135267141Y-78542082D01*
X135188974Y-78148142D01*
X135141825Y-77909918D01*
X135136329Y-77884792D01*
X135133140Y-77865250D01*
X135161905Y-77864284D01*
X135186987Y-77863644D01*
X135212461Y-77863178D01*
X135238328Y-77862888D01*
X135264588Y-77862771D01*
X135269002Y-77862769D01*
X135431541Y-77862769D01*
X135460170Y-77863489D01*
X135488364Y-77865648D01*
X135516121Y-77869247D01*
X135543441Y-77874285D01*
X135570326Y-77880762D01*
X135579191Y-77883241D01*
X135605809Y-77892159D01*
X135631070Y-77902783D01*
X135654974Y-77915113D01*
X135677520Y-77929149D01*
X135698710Y-77944891D01*
X135718543Y-77962339D01*
X135737018Y-77981494D01*
X135754137Y-78002354D01*
X135769549Y-78024426D01*
X135782907Y-78047215D01*
X135794209Y-78070721D01*
X135803457Y-78094945D01*
X135810649Y-78119886D01*
X135815787Y-78145544D01*
X135818869Y-78171920D01*
X135819897Y-78199013D01*
X135819044Y-78225350D01*
X135816485Y-78251319D01*
X135812220Y-78276919D01*
X135806249Y-78302151D01*
X135798571Y-78327014D01*
X135789188Y-78351510D01*
X135778099Y-78375636D01*
X135765304Y-78399395D01*
X135750250Y-78423677D01*
X135732385Y-78449374D01*
X135717142Y-78469576D01*
X135700317Y-78490573D01*
X135681911Y-78512367D01*
X135661924Y-78534957D01*
X135640355Y-78558343D01*
X135617206Y-78582525D01*
X135592475Y-78607503D01*
X135566163Y-78633277D01*
X135548058Y-78651190D01*
X135523091Y-78677770D01*
X135500752Y-78704000D01*
X135481041Y-78729881D01*
X135463958Y-78755414D01*
X135449503Y-78780597D01*
X135437677Y-78805432D01*
X135428479Y-78829917D01*
X135421908Y-78854054D01*
X135417236Y-78885693D01*
X135416652Y-78901280D01*
X135417655Y-78931463D01*
X135420665Y-78961527D01*
X135425681Y-78991470D01*
X135432704Y-79021294D01*
X135441734Y-79050997D01*
X135452770Y-79080581D01*
X135465812Y-79110044D01*
X135480861Y-79139388D01*
X135497916Y-79168612D01*
X135516979Y-79197716D01*
X135530801Y-79217052D01*
X135552270Y-79244658D01*
X135573869Y-79269549D01*
X135595599Y-79291724D01*
X135617460Y-79311184D01*
X135639452Y-79327929D01*
X135661575Y-79341958D01*
X135683828Y-79353272D01*
X135713703Y-79364134D01*
X135743811Y-79370168D01*
X135766545Y-79371525D01*
X135796282Y-79369814D01*
X135824232Y-79364679D01*
X135850395Y-79356122D01*
X135874771Y-79344142D01*
X135897360Y-79328738D01*
X135918161Y-79309912D01*
X135925981Y-79301423D01*
X135943496Y-79278337D01*
X135958042Y-79253283D01*
X135969620Y-79226260D01*
X135978229Y-79197267D01*
X135982978Y-79172656D01*
X135985828Y-79146784D01*
X135986778Y-79119652D01*
X135984870Y-79092408D01*
X135982291Y-79066061D01*
X135979645Y-79040907D01*
X135978093Y-79026596D01*
X135961018Y-79049133D01*
X135944224Y-79070216D01*
X135927712Y-79089845D01*
X135903470Y-79116563D01*
X135879860Y-79140009D01*
X135856883Y-79160183D01*
X135834539Y-79177086D01*
X135812827Y-79190717D01*
X135784861Y-79203803D01*
X135758020Y-79211073D01*
X135738628Y-79212709D01*
X135712795Y-79211384D01*
X135682305Y-79205495D01*
X135656331Y-79194896D01*
X135634875Y-79179585D01*
X135617936Y-79159563D01*
X135605514Y-79134830D01*
X135597609Y-79105387D01*
X135594644Y-79080212D01*
X135594080Y-79061957D01*
X135598109Y-79031290D01*
X135607133Y-79004749D01*
X135621315Y-78976425D01*
X135635335Y-78954012D01*
X135652256Y-78930595D01*
X135672078Y-78906175D01*
X135694800Y-78880752D01*
X135720423Y-78854325D01*
X135739117Y-78836150D01*
X135759100Y-78817529D01*
X135785393Y-78792401D01*
X135809990Y-78766803D01*
X135832891Y-78740735D01*
X135854095Y-78714197D01*
X135873603Y-78687189D01*
X135891415Y-78659711D01*
X135907530Y-78631762D01*
X135921949Y-78603344D01*
X135934671Y-78574455D01*
X135945698Y-78545096D01*
X135955028Y-78515267D01*
X135962661Y-78484968D01*
X135968598Y-78454199D01*
X135972839Y-78422960D01*
X135975384Y-78391250D01*
X135976232Y-78359070D01*
X135975422Y-78324009D01*
X135972994Y-78289549D01*
X135968947Y-78255690D01*
X135963282Y-78222432D01*
X135955997Y-78189775D01*
X135947094Y-78157719D01*
X135936571Y-78126264D01*
X135924430Y-78095410D01*
X135910671Y-78065157D01*
X135895292Y-78035505D01*
X135878295Y-78006454D01*
X135859679Y-77978004D01*
X135839444Y-77950155D01*
X135817590Y-77922907D01*
X135794117Y-77896260D01*
X135769026Y-77870213D01*
X135742752Y-77845272D01*
X135715887Y-77821940D01*
X135688430Y-77800218D01*
X135660383Y-77780104D01*
X135631743Y-77761599D01*
X135602513Y-77744703D01*
X135572691Y-77729417D01*
X135542278Y-77715740D01*
X135511274Y-77703671D01*
X135479678Y-77693212D01*
X135447491Y-77684362D01*
X135414713Y-77677121D01*
X135381344Y-77671489D01*
X135347383Y-77667467D01*
X135312831Y-77665053D01*
X135277688Y-77664248D01*
X135117630Y-77664248D01*
X134969360Y-77664248D01*
X134942607Y-77663628D01*
X134915077Y-77661767D01*
X134890353Y-77659121D01*
X134865035Y-77655524D01*
X134857692Y-77654322D01*
G37*
G36*
X134021424Y-79777252D02*
G01*
X133969313Y-79852317D01*
X133995085Y-79870827D01*
X134021996Y-79888823D01*
X134050047Y-79906305D01*
X134079236Y-79923273D01*
X134109564Y-79939728D01*
X134141031Y-79955668D01*
X134173637Y-79971095D01*
X134207382Y-79986009D01*
X134242267Y-80000408D01*
X134278290Y-80014294D01*
X134315452Y-80027666D01*
X134353753Y-80040524D01*
X134393193Y-80052869D01*
X134433772Y-80064700D01*
X134475489Y-80076017D01*
X134518346Y-80086820D01*
X134516289Y-80060461D01*
X134512598Y-80032411D01*
X134507274Y-80002669D01*
X134500317Y-79971236D01*
X134491726Y-79938111D01*
X134481502Y-79903295D01*
X134469644Y-79866787D01*
X134456154Y-79828588D01*
X134441029Y-79788697D01*
X134424272Y-79747115D01*
X134405881Y-79703841D01*
X134385857Y-79658876D01*
X134375233Y-79635759D01*
X134364200Y-79612219D01*
X134352758Y-79588257D01*
X134340909Y-79563871D01*
X134328651Y-79539063D01*
X134315985Y-79513832D01*
X134302910Y-79488177D01*
X134289427Y-79462100D01*
X134315990Y-79496211D01*
X134342789Y-79529528D01*
X134369827Y-79562049D01*
X134397101Y-79593775D01*
X134424614Y-79624707D01*
X134452363Y-79654844D01*
X134480351Y-79684186D01*
X134508575Y-79712733D01*
X134537038Y-79740485D01*
X134565737Y-79767442D01*
X134594674Y-79793605D01*
X134623849Y-79818972D01*
X134653261Y-79843545D01*
X134682911Y-79867323D01*
X134712798Y-79890306D01*
X134742923Y-79912494D01*
X134772790Y-79933529D01*
X134801907Y-79953206D01*
X134830272Y-79971527D01*
X134857886Y-79988490D01*
X134884749Y-80004097D01*
X134910861Y-80018346D01*
X134936221Y-80031238D01*
X134960830Y-80042773D01*
X134984688Y-80052951D01*
X135019066Y-80065674D01*
X135051754Y-80075343D01*
X135082752Y-80081959D01*
X135112059Y-80085521D01*
X135130658Y-80086200D01*
X135156047Y-80084684D01*
X135186014Y-80077947D01*
X135211542Y-80065820D01*
X135232630Y-80048304D01*
X135249278Y-80025399D01*
X135261487Y-79997104D01*
X135267730Y-79972346D01*
X135271476Y-79944556D01*
X135272725Y-79913735D01*
X135271792Y-79880314D01*
X135268993Y-79846589D01*
X135264328Y-79812558D01*
X135257797Y-79778221D01*
X135249400Y-79743579D01*
X135239137Y-79708632D01*
X135227008Y-79673380D01*
X135213013Y-79637822D01*
X135197152Y-79601959D01*
X135179426Y-79565791D01*
X135159833Y-79529317D01*
X135138374Y-79492538D01*
X135115049Y-79455453D01*
X135089859Y-79418063D01*
X135062802Y-79380368D01*
X135033879Y-79342368D01*
X135003551Y-79304568D01*
X134972278Y-79267632D01*
X134940060Y-79231558D01*
X134906896Y-79196346D01*
X134872787Y-79161998D01*
X134837734Y-79128512D01*
X134801735Y-79095889D01*
X134764791Y-79064129D01*
X134726902Y-79033231D01*
X134688068Y-79003196D01*
X134648289Y-78974024D01*
X134607564Y-78945714D01*
X134586848Y-78931883D01*
X134565895Y-78918267D01*
X134544706Y-78904868D01*
X134523280Y-78891683D01*
X134501619Y-78878715D01*
X134479721Y-78865962D01*
X134457586Y-78853425D01*
X134435216Y-78841103D01*
X134409861Y-78827325D01*
X134384512Y-78813984D01*
X134359169Y-78801080D01*
X134333833Y-78788614D01*
X134308502Y-78776585D01*
X134283177Y-78764993D01*
X134257859Y-78753839D01*
X134232546Y-78743122D01*
X134207240Y-78732843D01*
X134181940Y-78723001D01*
X134156645Y-78713597D01*
X134131357Y-78704630D01*
X134106075Y-78696100D01*
X134080799Y-78688008D01*
X134055529Y-78680354D01*
X134030265Y-78673136D01*
X134005007Y-78666356D01*
X133979755Y-78660014D01*
X133954509Y-78654109D01*
X133929269Y-78648641D01*
X133904036Y-78643611D01*
X133878808Y-78639018D01*
X133853586Y-78634862D01*
X133828371Y-78631144D01*
X133803161Y-78627864D01*
X133777958Y-78625021D01*
X133752761Y-78622615D01*
X133727569Y-78620646D01*
X133702384Y-78619116D01*
X133677205Y-78618022D01*
X133652032Y-78617366D01*
X133626865Y-78617147D01*
X133601143Y-78619263D01*
X133575126Y-78628665D01*
X133557166Y-78648234D01*
X133551253Y-78673621D01*
X133551179Y-78677324D01*
X133555988Y-78704652D01*
X133564538Y-78729195D01*
X133574928Y-78753514D01*
X133588286Y-78781346D01*
X133601111Y-78806142D01*
X133611976Y-78826214D01*
X133644245Y-78823742D01*
X133675913Y-78821600D01*
X133706981Y-78819787D01*
X133737447Y-78818304D01*
X133767312Y-78817151D01*
X133796577Y-78816327D01*
X133825240Y-78815833D01*
X133853302Y-78815668D01*
X133885885Y-78816051D01*
X133918183Y-78817199D01*
X133950196Y-78819114D01*
X133981924Y-78821794D01*
X134013367Y-78825240D01*
X134044526Y-78829452D01*
X134075400Y-78834429D01*
X134105990Y-78840173D01*
X134136294Y-78846682D01*
X134166314Y-78853957D01*
X134196049Y-78861997D01*
X134225499Y-78870804D01*
X134254665Y-78880376D01*
X134283546Y-78890714D01*
X134312142Y-78901818D01*
X134340453Y-78913687D01*
X134368480Y-78926323D01*
X134396222Y-78939724D01*
X134423679Y-78953891D01*
X134450851Y-78968823D01*
X134477739Y-78984522D01*
X134504342Y-79000986D01*
X134530660Y-79018216D01*
X134556693Y-79036212D01*
X134582442Y-79054973D01*
X134607906Y-79074501D01*
X134633085Y-79094794D01*
X134657980Y-79115853D01*
X134682589Y-79137677D01*
X134706914Y-79160268D01*
X134730954Y-79183624D01*
X134754710Y-79207746D01*
X134788290Y-79243541D01*
X134819704Y-79279273D01*
X134848951Y-79314943D01*
X134876032Y-79350549D01*
X134900947Y-79386092D01*
X134923695Y-79421572D01*
X134944276Y-79456990D01*
X134962691Y-79492344D01*
X134978940Y-79527635D01*
X134993022Y-79562863D01*
X135004937Y-79598028D01*
X135014687Y-79633131D01*
X135022269Y-79668170D01*
X135027685Y-79703146D01*
X135030935Y-79738059D01*
X135032018Y-79772909D01*
X135030719Y-79799808D01*
X135025443Y-79828389D01*
X135013752Y-79855288D01*
X134996217Y-79874117D01*
X134972837Y-79884877D01*
X134948888Y-79887679D01*
X134922104Y-79884195D01*
X134897841Y-79876392D01*
X134871058Y-79864130D01*
X134849317Y-79852007D01*
X134826159Y-79837376D01*
X134801582Y-79820237D01*
X134775588Y-79800590D01*
X134748177Y-79778434D01*
X134729115Y-79762271D01*
X134709422Y-79744992D01*
X134689469Y-79726890D01*
X134669776Y-79708409D01*
X134650346Y-79689551D01*
X134631177Y-79670314D01*
X134612270Y-79650700D01*
X134593625Y-79630707D01*
X134575242Y-79610337D01*
X134557120Y-79589588D01*
X134539260Y-79568461D01*
X134521661Y-79546956D01*
X134504325Y-79525074D01*
X134487250Y-79502813D01*
X134470437Y-79480174D01*
X134453885Y-79457157D01*
X134437596Y-79433762D01*
X134421568Y-79409989D01*
X134399961Y-79376772D01*
X134379188Y-79343192D01*
X134359249Y-79309248D01*
X134340143Y-79274940D01*
X134321871Y-79240270D01*
X134304433Y-79205235D01*
X134287828Y-79169837D01*
X134272057Y-79134076D01*
X134257119Y-79097951D01*
X134243015Y-79061463D01*
X134229745Y-79024611D01*
X134217308Y-78987396D01*
X134205705Y-78949817D01*
X134194936Y-78911875D01*
X134185000Y-78873569D01*
X134175898Y-78834899D01*
X134150453Y-78852086D01*
X134128401Y-78871385D01*
X134109741Y-78892798D01*
X134094474Y-78916324D01*
X134082599Y-78941963D01*
X134074118Y-78969715D01*
X134069029Y-78999580D01*
X134067332Y-79031559D01*
X134068625Y-79064243D01*
X134072501Y-79097156D01*
X134078963Y-79130299D01*
X134088008Y-79163670D01*
X134099639Y-79197270D01*
X134113853Y-79231100D01*
X134124766Y-79253780D01*
X134136827Y-79276562D01*
X134150036Y-79299445D01*
X134164395Y-79322431D01*
X134179902Y-79345518D01*
X134196557Y-79368707D01*
X134214362Y-79391998D01*
X134188228Y-79387151D01*
X134163625Y-79380775D01*
X134139363Y-79373820D01*
X134111029Y-79365217D01*
X134087107Y-79357683D01*
X134060895Y-79349223D01*
X134032393Y-79339835D01*
X134012119Y-79333062D01*
X134046860Y-79405026D01*
X134066693Y-79448748D01*
X134085246Y-79490114D01*
X134102519Y-79529125D01*
X134118513Y-79565781D01*
X134133228Y-79600081D01*
X134146663Y-79632025D01*
X134158819Y-79661615D01*
X134169695Y-79688848D01*
X134179291Y-79713726D01*
X134191287Y-79746627D01*
X134200403Y-79774228D01*
X134208080Y-79802784D01*
X134210639Y-79821919D01*
X134200461Y-79845183D01*
X134184584Y-79847975D01*
X134159497Y-79842624D01*
X134133812Y-79833217D01*
X134107909Y-79821845D01*
X134084243Y-79810436D01*
X134057959Y-79796972D01*
X134029059Y-79781453D01*
X134021424Y-79777252D01*
G37*
G36*
X132680170Y-79788419D02*
G01*
X132631780Y-79868447D01*
X132660664Y-79888234D01*
X132690241Y-79907269D01*
X132720511Y-79925553D01*
X132751474Y-79943086D01*
X132783131Y-79959868D01*
X132815480Y-79975898D01*
X132848522Y-79991178D01*
X132882258Y-80005706D01*
X132916686Y-80019482D01*
X132951808Y-80032508D01*
X132987622Y-80044782D01*
X133024130Y-80056305D01*
X133061331Y-80067077D01*
X133099225Y-80077097D01*
X133137812Y-80086367D01*
X133177092Y-80094885D01*
X133171024Y-80054131D01*
X133162900Y-80011279D01*
X133152722Y-79966329D01*
X133140489Y-79919279D01*
X133133602Y-79894968D01*
X133126201Y-79870131D01*
X133118287Y-79844771D01*
X133109858Y-79818885D01*
X133100916Y-79792475D01*
X133091460Y-79765540D01*
X133081491Y-79738080D01*
X133071007Y-79710096D01*
X133060010Y-79681587D01*
X133048499Y-79652554D01*
X133036474Y-79622996D01*
X133023936Y-79592913D01*
X133010884Y-79562305D01*
X132997318Y-79531173D01*
X132983238Y-79499516D01*
X132968645Y-79467335D01*
X132953538Y-79434629D01*
X132937917Y-79401398D01*
X132921782Y-79367643D01*
X132905134Y-79333363D01*
X132887972Y-79298558D01*
X132870296Y-79263228D01*
X132852106Y-79227374D01*
X132833403Y-79190996D01*
X132719874Y-78975725D01*
X132706933Y-78950309D01*
X132695718Y-78927413D01*
X132684125Y-78902338D01*
X132673773Y-78877445D01*
X132666008Y-78853076D01*
X132664660Y-78842964D01*
X132672676Y-78818893D01*
X132683272Y-78815668D01*
X132708708Y-78821367D01*
X132732766Y-78832418D01*
X132755546Y-78845446D01*
X132781466Y-78862196D01*
X132802967Y-78877201D01*
X132826235Y-78894301D01*
X132851269Y-78913493D01*
X132878070Y-78934780D01*
X132905700Y-78957346D01*
X132933221Y-78980610D01*
X132960632Y-79004572D01*
X132987935Y-79029232D01*
X133015128Y-79054590D01*
X133033197Y-79071883D01*
X133051217Y-79089487D01*
X133069188Y-79107400D01*
X133087112Y-79125624D01*
X133104986Y-79144157D01*
X133122812Y-79163001D01*
X133140590Y-79182155D01*
X133158319Y-79201620D01*
X133167166Y-79211468D01*
X133185532Y-79232116D01*
X133203717Y-79253038D01*
X133221722Y-79274234D01*
X133239546Y-79295704D01*
X133257190Y-79317447D01*
X133274653Y-79339465D01*
X133291936Y-79361756D01*
X133309038Y-79384321D01*
X133325960Y-79407159D01*
X133342701Y-79430272D01*
X133359261Y-79453659D01*
X133375641Y-79477319D01*
X133391841Y-79501253D01*
X133407860Y-79525461D01*
X133423698Y-79549943D01*
X133439356Y-79574699D01*
X133454833Y-79599728D01*
X133470130Y-79625032D01*
X133485246Y-79650609D01*
X133500182Y-79676460D01*
X133514937Y-79702585D01*
X133529512Y-79728984D01*
X133543906Y-79755656D01*
X133558119Y-79782603D01*
X133572152Y-79809823D01*
X133586005Y-79837317D01*
X133599677Y-79865085D01*
X133613168Y-79893127D01*
X133626479Y-79921442D01*
X133639609Y-79950032D01*
X133652559Y-79978895D01*
X133665328Y-80008032D01*
X133689503Y-80014139D01*
X133717052Y-80022223D01*
X133747974Y-80032285D01*
X133773379Y-80041129D01*
X133800682Y-80051085D01*
X133829882Y-80062154D01*
X133860980Y-80074335D01*
X133893975Y-80087628D01*
X133917025Y-80097108D01*
X133940920Y-80107083D01*
X133953183Y-80112255D01*
X133941689Y-80088883D01*
X133930239Y-80065451D01*
X133918832Y-80041958D01*
X133907469Y-80018404D01*
X133896150Y-79994790D01*
X133884874Y-79971115D01*
X133873642Y-79947379D01*
X133862453Y-79923583D01*
X133851308Y-79899727D01*
X133840207Y-79875809D01*
X133829149Y-79851832D01*
X133818135Y-79827793D01*
X133807164Y-79803694D01*
X133796237Y-79779535D01*
X133785354Y-79755314D01*
X133774515Y-79731034D01*
X133763718Y-79706692D01*
X133752966Y-79682291D01*
X133742257Y-79657828D01*
X133731592Y-79633305D01*
X133720971Y-79608721D01*
X133710393Y-79584077D01*
X133699858Y-79559372D01*
X133689368Y-79534607D01*
X133678921Y-79509781D01*
X133668517Y-79484894D01*
X133658157Y-79459947D01*
X133647841Y-79434940D01*
X133637569Y-79409871D01*
X133627340Y-79384742D01*
X133617154Y-79359553D01*
X133607013Y-79334303D01*
X133597013Y-79309310D01*
X133587330Y-79284971D01*
X133577965Y-79261284D01*
X133560188Y-79215871D01*
X133543680Y-79173070D01*
X133528442Y-79132881D01*
X133514474Y-79095304D01*
X133501775Y-79060340D01*
X133490347Y-79027989D01*
X133480188Y-78998249D01*
X133471299Y-78971122D01*
X133463680Y-78946608D01*
X133454633Y-78914734D01*
X133448442Y-78888738D01*
X133444633Y-78863220D01*
X133444474Y-78858474D01*
X133448749Y-78832389D01*
X133467748Y-78816337D01*
X133474872Y-78815668D01*
X133500638Y-78820291D01*
X133527314Y-78828511D01*
X133552308Y-78837374D01*
X133576402Y-78846525D01*
X133581577Y-78848548D01*
X133605488Y-78856922D01*
X133622522Y-78862816D01*
X133641133Y-78767278D01*
X133608818Y-78758004D01*
X133577012Y-78748638D01*
X133545714Y-78739180D01*
X133514926Y-78729629D01*
X133484646Y-78719987D01*
X133454875Y-78710252D01*
X133425613Y-78700425D01*
X133396860Y-78690507D01*
X133368616Y-78680496D01*
X133340881Y-78670393D01*
X133313654Y-78660198D01*
X133286937Y-78649911D01*
X133260729Y-78639532D01*
X133235029Y-78629060D01*
X133209838Y-78618497D01*
X133185157Y-78607842D01*
X133138008Y-78586128D01*
X133134709Y-78611205D01*
X133131850Y-78636163D01*
X133131184Y-78646305D01*
X133133207Y-78678898D01*
X133136803Y-78704014D01*
X133142197Y-78731839D01*
X133149390Y-78762373D01*
X133158380Y-78795616D01*
X133169169Y-78831569D01*
X133181756Y-78870231D01*
X133196141Y-78911603D01*
X133212324Y-78955683D01*
X133230305Y-79002473D01*
X133239970Y-79026884D01*
X133250085Y-79051973D01*
X133260649Y-79077738D01*
X133271662Y-79104181D01*
X133283125Y-79131301D01*
X133295038Y-79159099D01*
X133307400Y-79187574D01*
X133320211Y-79216726D01*
X133333473Y-79246556D01*
X133347183Y-79277063D01*
X133361344Y-79308247D01*
X133403529Y-79351673D01*
X133388640Y-79305765D01*
X133370729Y-79285967D01*
X133352901Y-79266430D01*
X133335154Y-79247154D01*
X133317491Y-79228141D01*
X133299909Y-79209389D01*
X133282410Y-79190899D01*
X133264994Y-79172670D01*
X133247659Y-79154704D01*
X133213238Y-79119555D01*
X133179147Y-79085454D01*
X133145385Y-79052400D01*
X133111952Y-79020392D01*
X133078849Y-78989431D01*
X133046076Y-78959518D01*
X133013632Y-78930651D01*
X132981518Y-78902831D01*
X132949733Y-78876058D01*
X132918278Y-78850331D01*
X132887153Y-78825652D01*
X132856357Y-78802019D01*
X132826126Y-78779633D01*
X132796694Y-78758690D01*
X132768062Y-78739192D01*
X132740230Y-78721138D01*
X132713198Y-78704528D01*
X132686965Y-78689363D01*
X132661532Y-78675642D01*
X132636898Y-78663365D01*
X132613065Y-78652533D01*
X132590031Y-78643145D01*
X132556980Y-78631771D01*
X132525727Y-78623647D01*
X132496275Y-78618772D01*
X132468621Y-78617147D01*
X132438239Y-78619692D01*
X132413005Y-78627325D01*
X132389523Y-78643203D01*
X132373456Y-78666409D01*
X132365732Y-78691345D01*
X132363157Y-78721370D01*
X132366763Y-78749985D01*
X132374200Y-78778469D01*
X132385694Y-78812973D01*
X132395611Y-78839320D01*
X132407330Y-78868342D01*
X132420852Y-78900039D01*
X132436178Y-78934412D01*
X132453306Y-78971460D01*
X132472237Y-79011183D01*
X132492971Y-79053582D01*
X132515508Y-79098657D01*
X132527453Y-79122197D01*
X132539848Y-79146406D01*
X132552694Y-79171284D01*
X132565991Y-79196831D01*
X132579739Y-79223047D01*
X132593937Y-79249932D01*
X132610655Y-79281325D01*
X132626842Y-79311841D01*
X132642498Y-79341478D01*
X132657623Y-79370236D01*
X132672218Y-79398116D01*
X132686281Y-79425118D01*
X132699815Y-79451241D01*
X132712817Y-79476485D01*
X132725289Y-79500852D01*
X132737230Y-79524339D01*
X132748640Y-79546948D01*
X132769869Y-79589532D01*
X132788974Y-79628601D01*
X132805957Y-79664156D01*
X132820817Y-79696198D01*
X132833554Y-79724725D01*
X132844169Y-79749739D01*
X132856110Y-79780671D01*
X132864601Y-79809616D01*
X132865662Y-79818817D01*
X132857026Y-79842394D01*
X132838366Y-79847975D01*
X132812116Y-79845261D01*
X132785267Y-79838433D01*
X132759371Y-79829273D01*
X132735759Y-79819307D01*
X132710299Y-79807220D01*
X132704985Y-79804548D01*
X132680170Y-79788419D01*
G37*
G36*
X131297970Y-79788419D02*
G01*
X131249581Y-79868447D01*
X131278465Y-79888234D01*
X131308042Y-79907269D01*
X131338312Y-79925553D01*
X131369275Y-79943086D01*
X131400931Y-79959868D01*
X131433280Y-79975898D01*
X131466323Y-79991178D01*
X131500058Y-80005706D01*
X131534486Y-80019482D01*
X131569608Y-80032508D01*
X131605423Y-80044782D01*
X131641930Y-80056305D01*
X131679131Y-80067077D01*
X131717025Y-80077097D01*
X131755612Y-80086367D01*
X131794892Y-80094885D01*
X131788824Y-80054131D01*
X131780701Y-80011279D01*
X131770523Y-79966329D01*
X131758290Y-79919279D01*
X131751403Y-79894968D01*
X131744002Y-79870131D01*
X131736087Y-79844771D01*
X131727659Y-79818885D01*
X131718717Y-79792475D01*
X131709261Y-79765540D01*
X131699291Y-79738080D01*
X131688808Y-79710096D01*
X131677810Y-79681587D01*
X131666300Y-79652554D01*
X131654275Y-79622996D01*
X131641737Y-79592913D01*
X131628684Y-79562305D01*
X131615118Y-79531173D01*
X131601039Y-79499516D01*
X131586445Y-79467335D01*
X131571338Y-79434629D01*
X131555717Y-79401398D01*
X131539583Y-79367643D01*
X131522934Y-79333363D01*
X131505772Y-79298558D01*
X131488096Y-79263228D01*
X131469907Y-79227374D01*
X131451203Y-79190996D01*
X131337674Y-78975725D01*
X131324734Y-78950309D01*
X131313518Y-78927413D01*
X131301926Y-78902338D01*
X131291573Y-78877445D01*
X131283809Y-78853076D01*
X131282461Y-78842964D01*
X131290476Y-78818893D01*
X131301072Y-78815668D01*
X131326509Y-78821367D01*
X131350567Y-78832418D01*
X131373346Y-78845446D01*
X131399266Y-78862196D01*
X131420767Y-78877201D01*
X131444035Y-78894301D01*
X131469069Y-78913493D01*
X131495870Y-78934780D01*
X131523500Y-78957346D01*
X131551021Y-78980610D01*
X131578433Y-79004572D01*
X131605735Y-79029232D01*
X131632929Y-79054590D01*
X131650997Y-79071883D01*
X131669017Y-79089487D01*
X131686989Y-79107400D01*
X131704912Y-79125624D01*
X131722787Y-79144157D01*
X131740613Y-79163001D01*
X131758390Y-79182155D01*
X131776120Y-79201620D01*
X131784966Y-79211468D01*
X131803332Y-79232116D01*
X131821517Y-79253038D01*
X131839522Y-79274234D01*
X131857347Y-79295704D01*
X131874990Y-79317447D01*
X131892454Y-79339465D01*
X131909736Y-79361756D01*
X131926838Y-79384321D01*
X131943760Y-79407159D01*
X131960501Y-79430272D01*
X131977062Y-79453659D01*
X131993442Y-79477319D01*
X132009641Y-79501253D01*
X132025660Y-79525461D01*
X132041498Y-79549943D01*
X132057156Y-79574699D01*
X132072634Y-79599728D01*
X132087930Y-79625032D01*
X132103047Y-79650609D01*
X132117982Y-79676460D01*
X132132738Y-79702585D01*
X132147312Y-79728984D01*
X132161706Y-79755656D01*
X132175920Y-79782603D01*
X132189953Y-79809823D01*
X132203805Y-79837317D01*
X132217477Y-79865085D01*
X132230968Y-79893127D01*
X132244279Y-79921442D01*
X132257410Y-79950032D01*
X132270359Y-79978895D01*
X132283129Y-80008032D01*
X132307304Y-80014139D01*
X132334853Y-80022223D01*
X132365774Y-80032285D01*
X132391180Y-80041129D01*
X132418482Y-80051085D01*
X132447682Y-80062154D01*
X132478780Y-80074335D01*
X132511775Y-80087628D01*
X132534826Y-80097108D01*
X132558720Y-80107083D01*
X132570983Y-80112255D01*
X132559490Y-80088883D01*
X132548039Y-80065451D01*
X132536633Y-80041958D01*
X132525269Y-80018404D01*
X132513950Y-79994790D01*
X132502674Y-79971115D01*
X132491442Y-79947379D01*
X132480253Y-79923583D01*
X132469108Y-79899727D01*
X132458007Y-79875809D01*
X132446949Y-79851832D01*
X132435935Y-79827793D01*
X132424965Y-79803694D01*
X132414038Y-79779535D01*
X132403155Y-79755314D01*
X132392315Y-79731034D01*
X132381519Y-79706692D01*
X132370767Y-79682291D01*
X132360058Y-79657828D01*
X132349393Y-79633305D01*
X132338771Y-79608721D01*
X132328193Y-79584077D01*
X132317659Y-79559372D01*
X132307168Y-79534607D01*
X132296721Y-79509781D01*
X132286318Y-79484894D01*
X132275958Y-79459947D01*
X132265642Y-79434940D01*
X132255369Y-79409871D01*
X132245140Y-79384742D01*
X132234955Y-79359553D01*
X132224813Y-79334303D01*
X132214813Y-79309310D01*
X132205131Y-79284971D01*
X132195766Y-79261284D01*
X132177988Y-79215871D01*
X132161480Y-79173070D01*
X132146242Y-79132881D01*
X132132274Y-79095304D01*
X132119576Y-79060340D01*
X132108147Y-79027989D01*
X132097989Y-78998249D01*
X132089100Y-78971122D01*
X132081481Y-78946608D01*
X132072433Y-78914734D01*
X132066243Y-78888738D01*
X132062433Y-78863220D01*
X132062274Y-78858474D01*
X132066549Y-78832389D01*
X132085548Y-78816337D01*
X132092673Y-78815668D01*
X132118438Y-78820291D01*
X132145114Y-78828511D01*
X132170109Y-78837374D01*
X132194203Y-78846525D01*
X132199378Y-78848548D01*
X132223289Y-78856922D01*
X132240323Y-78862816D01*
X132258934Y-78767278D01*
X132226619Y-78758004D01*
X132194812Y-78748638D01*
X132163515Y-78739180D01*
X132132726Y-78729629D01*
X132102446Y-78719987D01*
X132072675Y-78710252D01*
X132043414Y-78700425D01*
X132014661Y-78690507D01*
X131986416Y-78680496D01*
X131958681Y-78670393D01*
X131931455Y-78660198D01*
X131904738Y-78649911D01*
X131878529Y-78639532D01*
X131852829Y-78629060D01*
X131827639Y-78618497D01*
X131802957Y-78607842D01*
X131755808Y-78586128D01*
X131752510Y-78611205D01*
X131749651Y-78636163D01*
X131748984Y-78646305D01*
X131751007Y-78678898D01*
X131754603Y-78704014D01*
X131759998Y-78731839D01*
X131767190Y-78762373D01*
X131776181Y-78795616D01*
X131786970Y-78831569D01*
X131799556Y-78870231D01*
X131813941Y-78911603D01*
X131830124Y-78955683D01*
X131848106Y-79002473D01*
X131857771Y-79026884D01*
X131867885Y-79051973D01*
X131878449Y-79077738D01*
X131889463Y-79104181D01*
X131900926Y-79131301D01*
X131912838Y-79159099D01*
X131925200Y-79187574D01*
X131938012Y-79216726D01*
X131951273Y-79246556D01*
X131964984Y-79277063D01*
X131979144Y-79308247D01*
X132021330Y-79351673D01*
X132006441Y-79305765D01*
X131988530Y-79285967D01*
X131970701Y-79266430D01*
X131952955Y-79247154D01*
X131935291Y-79228141D01*
X131917710Y-79209389D01*
X131900211Y-79190899D01*
X131882794Y-79172670D01*
X131865460Y-79154704D01*
X131831039Y-79119555D01*
X131796947Y-79085454D01*
X131763185Y-79052400D01*
X131729752Y-79020392D01*
X131696650Y-78989431D01*
X131663876Y-78959518D01*
X131631432Y-78930651D01*
X131599318Y-78902831D01*
X131567534Y-78876058D01*
X131536079Y-78850331D01*
X131504953Y-78825652D01*
X131474157Y-78802019D01*
X131443926Y-78779633D01*
X131414494Y-78758690D01*
X131385863Y-78739192D01*
X131358030Y-78721138D01*
X131330998Y-78704528D01*
X131304765Y-78689363D01*
X131279332Y-78675642D01*
X131254699Y-78663365D01*
X131230865Y-78652533D01*
X131207831Y-78643145D01*
X131174780Y-78631771D01*
X131143528Y-78623647D01*
X131114075Y-78618772D01*
X131086422Y-78617147D01*
X131056039Y-78619692D01*
X131030806Y-78627325D01*
X131007324Y-78643203D01*
X130991257Y-78666409D01*
X130983532Y-78691345D01*
X130980958Y-78721370D01*
X130984564Y-78749985D01*
X130992001Y-78778469D01*
X131003495Y-78812973D01*
X131013411Y-78839320D01*
X131025130Y-78868342D01*
X131038653Y-78900039D01*
X131053978Y-78934412D01*
X131071106Y-78971460D01*
X131090037Y-79011183D01*
X131110771Y-79053582D01*
X131133309Y-79098657D01*
X131145253Y-79122197D01*
X131157649Y-79146406D01*
X131170495Y-79171284D01*
X131183792Y-79196831D01*
X131197539Y-79223047D01*
X131211738Y-79249932D01*
X131228455Y-79281325D01*
X131244642Y-79311841D01*
X131260298Y-79341478D01*
X131275423Y-79370236D01*
X131290018Y-79398116D01*
X131304082Y-79425118D01*
X131317615Y-79451241D01*
X131330618Y-79476485D01*
X131343089Y-79500852D01*
X131355030Y-79524339D01*
X131366441Y-79546948D01*
X131387669Y-79589532D01*
X131406775Y-79628601D01*
X131423758Y-79664156D01*
X131438618Y-79696198D01*
X131451355Y-79724725D01*
X131461969Y-79749739D01*
X131473910Y-79780671D01*
X131482401Y-79809616D01*
X131483463Y-79818817D01*
X131474826Y-79842394D01*
X131456166Y-79847975D01*
X131429917Y-79845261D01*
X131403068Y-79838433D01*
X131377172Y-79829273D01*
X131353559Y-79819307D01*
X131328099Y-79807220D01*
X131322785Y-79804548D01*
X131297970Y-79788419D01*
G37*
G36*
X130127319Y-79256756D02*
G01*
X130114272Y-79283328D01*
X130103437Y-79307597D01*
X130093353Y-79333682D01*
X130085614Y-79359925D01*
X130082032Y-79387035D01*
X130084131Y-79419421D01*
X130090428Y-79452603D01*
X130100925Y-79486582D01*
X130110255Y-79509676D01*
X130121450Y-79533124D01*
X130134512Y-79556927D01*
X130149440Y-79581083D01*
X130166234Y-79605592D01*
X130184894Y-79630456D01*
X130205419Y-79655673D01*
X130227811Y-79681244D01*
X130252069Y-79707169D01*
X130278192Y-79733448D01*
X130306182Y-79760081D01*
X130320877Y-79773530D01*
X130342298Y-79792766D01*
X130363525Y-79811392D01*
X130384557Y-79829407D01*
X130405393Y-79846812D01*
X130426035Y-79863605D01*
X130446481Y-79879788D01*
X130466732Y-79895361D01*
X130486789Y-79910323D01*
X130526316Y-79938414D01*
X130565063Y-79964063D01*
X130603029Y-79987269D01*
X130640216Y-80008032D01*
X130676622Y-80026353D01*
X130712247Y-80042230D01*
X130747093Y-80055665D01*
X130781158Y-80066658D01*
X130814442Y-80075207D01*
X130846947Y-80081314D01*
X130878671Y-80084978D01*
X130909614Y-80086200D01*
X130936734Y-80085247D01*
X130962104Y-80082390D01*
X130996878Y-80074533D01*
X131027716Y-80062390D01*
X131054617Y-80045962D01*
X131077581Y-80025247D01*
X131096609Y-80000248D01*
X131111700Y-79970962D01*
X131122854Y-79937391D01*
X131128103Y-79912629D01*
X131131602Y-79885963D01*
X131133352Y-79857391D01*
X131133570Y-79842391D01*
X131132938Y-79810115D01*
X131131040Y-79777649D01*
X131127878Y-79744995D01*
X131123450Y-79712151D01*
X131117758Y-79679118D01*
X131110801Y-79645897D01*
X131102578Y-79612486D01*
X131093091Y-79578886D01*
X131082338Y-79545098D01*
X131070321Y-79511120D01*
X131057039Y-79476953D01*
X131042491Y-79442597D01*
X131026679Y-79408052D01*
X131009602Y-79373319D01*
X130991259Y-79338396D01*
X130971652Y-79303284D01*
X130950983Y-79268465D01*
X130929612Y-79234422D01*
X130907537Y-79201154D01*
X130884760Y-79168662D01*
X130861281Y-79136945D01*
X130837098Y-79106004D01*
X130812213Y-79075838D01*
X130786625Y-79046448D01*
X130760334Y-79017833D01*
X130733340Y-78989994D01*
X130705644Y-78962930D01*
X130677244Y-78936641D01*
X130648142Y-78911128D01*
X130618338Y-78886391D01*
X130587830Y-78862429D01*
X130556620Y-78839242D01*
X130518256Y-78812348D01*
X130480401Y-78787189D01*
X130443055Y-78763765D01*
X130406217Y-78742076D01*
X130369889Y-78722122D01*
X130334069Y-78703903D01*
X130298759Y-78687419D01*
X130263957Y-78672671D01*
X130229664Y-78659658D01*
X130195880Y-78648379D01*
X130162605Y-78638836D01*
X130129839Y-78631028D01*
X130097582Y-78624955D01*
X130065834Y-78620617D01*
X130034595Y-78618015D01*
X130003864Y-78617147D01*
X129975704Y-78618189D01*
X129950313Y-78621313D01*
X129920768Y-78628719D01*
X129896146Y-78639827D01*
X129872295Y-78658920D01*
X129856137Y-78683799D01*
X129848751Y-78707868D01*
X129846288Y-78735639D01*
X129848731Y-78763011D01*
X129856059Y-78792084D01*
X129865898Y-78817611D01*
X129879130Y-78844319D01*
X129892158Y-78866536D01*
X129907357Y-78889510D01*
X129915771Y-78901280D01*
X129933500Y-78924554D01*
X129952257Y-78947226D01*
X129972041Y-78969298D01*
X129992852Y-78990769D01*
X130014692Y-79011639D01*
X130037558Y-79031908D01*
X130061453Y-79051576D01*
X130086374Y-79070643D01*
X130110889Y-79087247D01*
X130136974Y-79103561D01*
X130164629Y-79119585D01*
X130193855Y-79135317D01*
X130216804Y-79146925D01*
X130240637Y-79158370D01*
X130265354Y-79169651D01*
X130290953Y-79180769D01*
X130317436Y-79191723D01*
X130326460Y-79195338D01*
X130353112Y-79205538D01*
X130378630Y-79214735D01*
X130403014Y-79222928D01*
X130433761Y-79232292D01*
X130462492Y-79239872D01*
X130489207Y-79245669D01*
X130513906Y-79249682D01*
X130541944Y-79252190D01*
X130552277Y-79252413D01*
X130581130Y-79248914D01*
X130607590Y-79238418D01*
X130631657Y-79220925D01*
X130649187Y-79201892D01*
X130665186Y-79178380D01*
X130679654Y-79150391D01*
X130689499Y-79126460D01*
X130695584Y-79109106D01*
X130670226Y-79114777D01*
X130641364Y-79120802D01*
X130615653Y-79125645D01*
X130588957Y-79129898D01*
X130563546Y-79132710D01*
X130549175Y-79133301D01*
X130517787Y-79132472D01*
X130486900Y-79129986D01*
X130456515Y-79125842D01*
X130426632Y-79120040D01*
X130397250Y-79112581D01*
X130368369Y-79103464D01*
X130339991Y-79092690D01*
X130312114Y-79080258D01*
X130284739Y-79066169D01*
X130257865Y-79050422D01*
X130240228Y-79039003D01*
X130215061Y-79021119D01*
X130192369Y-79003060D01*
X130172153Y-78984827D01*
X130154412Y-78966419D01*
X130134609Y-78941604D01*
X130119206Y-78916479D01*
X130108204Y-78891044D01*
X130101603Y-78865298D01*
X130099402Y-78839242D01*
X130103618Y-78814586D01*
X130118759Y-78793822D01*
X130141040Y-78782143D01*
X130166849Y-78776952D01*
X130187496Y-78775964D01*
X130222257Y-78777894D01*
X130257215Y-78783684D01*
X130292370Y-78793335D01*
X130315915Y-78801914D01*
X130339547Y-78812208D01*
X130363267Y-78824219D01*
X130387074Y-78837944D01*
X130410968Y-78853386D01*
X130434950Y-78870543D01*
X130459018Y-78889416D01*
X130483174Y-78910005D01*
X130507417Y-78932309D01*
X130531748Y-78956330D01*
X130556165Y-78982066D01*
X130568407Y-78995577D01*
X130585891Y-79015480D01*
X130602983Y-79035795D01*
X130619683Y-79056522D01*
X130635989Y-79077661D01*
X130651903Y-79099211D01*
X130667425Y-79121174D01*
X130682554Y-79143549D01*
X130697290Y-79166336D01*
X130711634Y-79189534D01*
X130725585Y-79213145D01*
X130739144Y-79237168D01*
X130752310Y-79261602D01*
X130765083Y-79286449D01*
X130777464Y-79311707D01*
X130789453Y-79337378D01*
X130801048Y-79363460D01*
X130812016Y-79389560D01*
X130822277Y-79415281D01*
X130831830Y-79440625D01*
X130840675Y-79465590D01*
X130848813Y-79490177D01*
X130856242Y-79514387D01*
X130866061Y-79549992D01*
X130874287Y-79584746D01*
X130880921Y-79618650D01*
X130885962Y-79651703D01*
X130889412Y-79683906D01*
X130891270Y-79715258D01*
X130891623Y-79735687D01*
X130890478Y-79762849D01*
X130885389Y-79794910D01*
X130876229Y-79822221D01*
X130862998Y-79844783D01*
X130845695Y-79862594D01*
X130824321Y-79875656D01*
X130798876Y-79883968D01*
X130769359Y-79887530D01*
X130761344Y-79887679D01*
X130731995Y-79886229D01*
X130702341Y-79881877D01*
X130672381Y-79874626D01*
X130642116Y-79864473D01*
X130611545Y-79851420D01*
X130580669Y-79835465D01*
X130549488Y-79816611D01*
X130528531Y-79802429D01*
X130507438Y-79786959D01*
X130486210Y-79770199D01*
X130464845Y-79752150D01*
X130443345Y-79732811D01*
X130432545Y-79722659D01*
X130411069Y-79701500D01*
X130389913Y-79679281D01*
X130369077Y-79656000D01*
X130348561Y-79631657D01*
X130328365Y-79606253D01*
X130308489Y-79579788D01*
X130288932Y-79552261D01*
X130269696Y-79523673D01*
X130250779Y-79494023D01*
X130232182Y-79463312D01*
X130213905Y-79431540D01*
X130195948Y-79398706D01*
X130178311Y-79364810D01*
X130160994Y-79329854D01*
X130143997Y-79293835D01*
X130127319Y-79256756D01*
G37*
G36*
X129062132Y-78577443D02*
G01*
X129108040Y-78656851D01*
X129352468Y-78656851D01*
X129361154Y-78676083D01*
X129371283Y-78698765D01*
X129381183Y-78721528D01*
X129393057Y-78749220D01*
X129406905Y-78781840D01*
X129417233Y-78806326D01*
X129428439Y-78833002D01*
X129440521Y-78861869D01*
X129453481Y-78892926D01*
X129467319Y-78926175D01*
X129482033Y-78961614D01*
X129497625Y-78999244D01*
X129514094Y-79039064D01*
X129531440Y-79081075D01*
X129540443Y-79102902D01*
X129552040Y-79130970D01*
X129564499Y-79160968D01*
X129577820Y-79192896D01*
X129592002Y-79226755D01*
X129601935Y-79250399D01*
X129612251Y-79274902D01*
X129622950Y-79300262D01*
X129634032Y-79326480D01*
X129645497Y-79353556D01*
X129657345Y-79381490D01*
X129669576Y-79410282D01*
X129682189Y-79439932D01*
X129695185Y-79470439D01*
X129708565Y-79501805D01*
X129723740Y-79537551D01*
X129737936Y-79571587D01*
X129751153Y-79603912D01*
X129763391Y-79634526D01*
X129774649Y-79663430D01*
X129784929Y-79690622D01*
X129794230Y-79716104D01*
X129802552Y-79739874D01*
X129813199Y-79772322D01*
X129821643Y-79800921D01*
X129827884Y-79825670D01*
X129832779Y-79852680D01*
X129833881Y-79868447D01*
X129830314Y-79894232D01*
X129815822Y-79916102D01*
X129790183Y-79926462D01*
X129776806Y-79927383D01*
X129748111Y-79923627D01*
X129722079Y-79915213D01*
X129693314Y-79901991D01*
X129669946Y-79888920D01*
X129645041Y-79873144D01*
X129618598Y-79854663D01*
X129590617Y-79833478D01*
X129571109Y-79817853D01*
X129550918Y-79801025D01*
X129530043Y-79782995D01*
X129519350Y-79773530D01*
X129470960Y-79855419D01*
X129493458Y-79874280D01*
X129516282Y-79892475D01*
X129539433Y-79910005D01*
X129562912Y-79926869D01*
X129586718Y-79943069D01*
X129610851Y-79958603D01*
X129635311Y-79973472D01*
X129660098Y-79987676D01*
X129685212Y-80001215D01*
X129710654Y-80014088D01*
X129727796Y-80022301D01*
X129753211Y-80033720D01*
X129777807Y-80044016D01*
X129801586Y-80053189D01*
X129832018Y-80063673D01*
X129860996Y-80072159D01*
X129888521Y-80078649D01*
X129914591Y-80083142D01*
X129945134Y-80085950D01*
X129956715Y-80086200D01*
X129983656Y-80085087D01*
X130015456Y-80080144D01*
X130042544Y-80071245D01*
X130064921Y-80058392D01*
X130086268Y-80036763D01*
X130100253Y-80008955D01*
X130106142Y-79982260D01*
X130107467Y-79959643D01*
X130103847Y-79928118D01*
X130098200Y-79902762D01*
X130089947Y-79872575D01*
X130079087Y-79837557D01*
X130070400Y-79811528D01*
X130060553Y-79783351D01*
X130049549Y-79753028D01*
X130037386Y-79720558D01*
X130024065Y-79685940D01*
X130009586Y-79649176D01*
X129993948Y-79610264D01*
X129977152Y-79569205D01*
X129959197Y-79525999D01*
X129777427Y-79097319D01*
X129759075Y-79053124D01*
X129741706Y-79011271D01*
X129725322Y-78971758D01*
X129709922Y-78934586D01*
X129695505Y-78899755D01*
X129682073Y-78867266D01*
X129669624Y-78837117D01*
X129658159Y-78809309D01*
X129647678Y-78783842D01*
X129638181Y-78760716D01*
X129625780Y-78730416D01*
X129615593Y-78705384D01*
X129605454Y-78680200D01*
X129601860Y-78671120D01*
X129595656Y-78656851D01*
X129829538Y-78656851D01*
X129781149Y-78577443D01*
X129747648Y-78577443D01*
X129721740Y-78577072D01*
X129689824Y-78575424D01*
X129660914Y-78572458D01*
X129635008Y-78568174D01*
X129606852Y-78560964D01*
X129583391Y-78551695D01*
X129561435Y-78537853D01*
X129558434Y-78535257D01*
X129539226Y-78513287D01*
X129524725Y-78491807D01*
X129508866Y-78464859D01*
X129496082Y-78441061D01*
X129482534Y-78414187D01*
X129468223Y-78384238D01*
X129453149Y-78351214D01*
X129442675Y-78327489D01*
X129431862Y-78302398D01*
X129420710Y-78275940D01*
X129396195Y-78266111D01*
X129371297Y-78259826D01*
X129370459Y-78259810D01*
X129343769Y-78259553D01*
X129315655Y-78258780D01*
X129286118Y-78257493D01*
X129255157Y-78255690D01*
X129229362Y-78253878D01*
X129202657Y-78251736D01*
X129175041Y-78249264D01*
X129185010Y-78275091D01*
X129195918Y-78302553D01*
X129205320Y-78325701D01*
X129215324Y-78349896D01*
X129225929Y-78375137D01*
X129237134Y-78401426D01*
X129248941Y-78428761D01*
X129255069Y-78442821D01*
X129307181Y-78566276D01*
X129312144Y-78577443D01*
X129062132Y-78577443D01*
G37*
G36*
X128357384Y-78577443D02*
G01*
X128403292Y-78656851D01*
X128647720Y-78656851D01*
X128656406Y-78676083D01*
X128666535Y-78698765D01*
X128676435Y-78721528D01*
X128688309Y-78749220D01*
X128702157Y-78781840D01*
X128712485Y-78806326D01*
X128723690Y-78833002D01*
X128735773Y-78861869D01*
X128748733Y-78892926D01*
X128762571Y-78926175D01*
X128777285Y-78961614D01*
X128792877Y-78999244D01*
X128809346Y-79039064D01*
X128826692Y-79081075D01*
X128835695Y-79102902D01*
X128847292Y-79130970D01*
X128859751Y-79160968D01*
X128873072Y-79192896D01*
X128887254Y-79226755D01*
X128897187Y-79250399D01*
X128907503Y-79274902D01*
X128918202Y-79300262D01*
X128929284Y-79326480D01*
X128940749Y-79353556D01*
X128952597Y-79381490D01*
X128964827Y-79410282D01*
X128977441Y-79439932D01*
X128990437Y-79470439D01*
X129003817Y-79501805D01*
X129018992Y-79537551D01*
X129033188Y-79571587D01*
X129046405Y-79603912D01*
X129058642Y-79634526D01*
X129069901Y-79663430D01*
X129080181Y-79690622D01*
X129089482Y-79716104D01*
X129097804Y-79739874D01*
X129108451Y-79772322D01*
X129116895Y-79800921D01*
X129123136Y-79825670D01*
X129128031Y-79852680D01*
X129129133Y-79868447D01*
X129125566Y-79894232D01*
X129111074Y-79916102D01*
X129085435Y-79926462D01*
X129072058Y-79927383D01*
X129043363Y-79923627D01*
X129017331Y-79915213D01*
X128988566Y-79901991D01*
X128965198Y-79888920D01*
X128940293Y-79873144D01*
X128913850Y-79854663D01*
X128885869Y-79833478D01*
X128866361Y-79817853D01*
X128846170Y-79801025D01*
X128825295Y-79782995D01*
X128814602Y-79773530D01*
X128766212Y-79855419D01*
X128788709Y-79874280D01*
X128811534Y-79892475D01*
X128834685Y-79910005D01*
X128858164Y-79926869D01*
X128881970Y-79943069D01*
X128906102Y-79958603D01*
X128930563Y-79973472D01*
X128955350Y-79987676D01*
X128980464Y-80001215D01*
X129005906Y-80014088D01*
X129023048Y-80022301D01*
X129048463Y-80033720D01*
X129073059Y-80044016D01*
X129096837Y-80053189D01*
X129127270Y-80063673D01*
X129156248Y-80072159D01*
X129183773Y-80078649D01*
X129209843Y-80083142D01*
X129240386Y-80085950D01*
X129251967Y-80086200D01*
X129278908Y-80085087D01*
X129310708Y-80080144D01*
X129337796Y-80071245D01*
X129360173Y-80058392D01*
X129381520Y-80036763D01*
X129395505Y-80008955D01*
X129401394Y-79982260D01*
X129402719Y-79959643D01*
X129399099Y-79928118D01*
X129393452Y-79902762D01*
X129385199Y-79872575D01*
X129374339Y-79837557D01*
X129365651Y-79811528D01*
X129355805Y-79783351D01*
X129344801Y-79753028D01*
X129332638Y-79720558D01*
X129319317Y-79685940D01*
X129304838Y-79649176D01*
X129289200Y-79610264D01*
X129272403Y-79569205D01*
X129254449Y-79525999D01*
X129072678Y-79097319D01*
X129054326Y-79053124D01*
X129036958Y-79011271D01*
X129020574Y-78971758D01*
X129005174Y-78934586D01*
X128990757Y-78899755D01*
X128977325Y-78867266D01*
X128964876Y-78837117D01*
X128953411Y-78809309D01*
X128942930Y-78783842D01*
X128933433Y-78760716D01*
X128921032Y-78730416D01*
X128910845Y-78705384D01*
X128900706Y-78680200D01*
X128897112Y-78671120D01*
X128890908Y-78656851D01*
X129124790Y-78656851D01*
X129076401Y-78577443D01*
X129042900Y-78577443D01*
X129016992Y-78577072D01*
X128985076Y-78575424D01*
X128956166Y-78572458D01*
X128930260Y-78568174D01*
X128902104Y-78560964D01*
X128878643Y-78551695D01*
X128856687Y-78537853D01*
X128853685Y-78535257D01*
X128834478Y-78513287D01*
X128819977Y-78491807D01*
X128804118Y-78464859D01*
X128791334Y-78441061D01*
X128777786Y-78414187D01*
X128763475Y-78384238D01*
X128748401Y-78351214D01*
X128737927Y-78327489D01*
X128727114Y-78302398D01*
X128715962Y-78275940D01*
X128691447Y-78266111D01*
X128666549Y-78259826D01*
X128665711Y-78259810D01*
X128639021Y-78259553D01*
X128610907Y-78258780D01*
X128581370Y-78257493D01*
X128550408Y-78255690D01*
X128524614Y-78253878D01*
X128497909Y-78251736D01*
X128470293Y-78249264D01*
X128480262Y-78275091D01*
X128491170Y-78302553D01*
X128500572Y-78325701D01*
X128510576Y-78349896D01*
X128521180Y-78375137D01*
X128532386Y-78401426D01*
X128544193Y-78428761D01*
X128550321Y-78442821D01*
X128602433Y-78566276D01*
X128607396Y-78577443D01*
X128357384Y-78577443D01*
G37*
G36*
X125930162Y-77624925D02*
G01*
X125971580Y-77626066D01*
X126012536Y-77627968D01*
X126053033Y-77630632D01*
X126093069Y-77634056D01*
X126132645Y-77638241D01*
X126171760Y-77643187D01*
X126210415Y-77648894D01*
X126248609Y-77655362D01*
X126286343Y-77662591D01*
X126323617Y-77670581D01*
X126360430Y-77679331D01*
X126396782Y-77688843D01*
X126432675Y-77699115D01*
X126468106Y-77710149D01*
X126503078Y-77721943D01*
X126537589Y-77734499D01*
X126571639Y-77747815D01*
X126605229Y-77761892D01*
X126638359Y-77776730D01*
X126671028Y-77792330D01*
X126703236Y-77808690D01*
X126734985Y-77825810D01*
X126766273Y-77843692D01*
X126797100Y-77862335D01*
X126827467Y-77881739D01*
X126857373Y-77901904D01*
X126886820Y-77922829D01*
X126915805Y-77944516D01*
X126944330Y-77966963D01*
X126972395Y-77990172D01*
X127000000Y-78014141D01*
X127026946Y-78038657D01*
X127053037Y-78063584D01*
X127078272Y-78088922D01*
X127102652Y-78114671D01*
X127126177Y-78140830D01*
X127148846Y-78167401D01*
X127170660Y-78194382D01*
X127191618Y-78221773D01*
X127211721Y-78249576D01*
X127230969Y-78277789D01*
X127249361Y-78306413D01*
X127266897Y-78335448D01*
X127283578Y-78364893D01*
X127299404Y-78394749D01*
X127314374Y-78425016D01*
X127328489Y-78455694D01*
X127341748Y-78486783D01*
X127354152Y-78518282D01*
X127365701Y-78550192D01*
X127376394Y-78582513D01*
X127386231Y-78615244D01*
X127395213Y-78648387D01*
X127403340Y-78681940D01*
X127410611Y-78715903D01*
X127417027Y-78750278D01*
X127422588Y-78785063D01*
X127427293Y-78820259D01*
X127431142Y-78855866D01*
X127434136Y-78891884D01*
X127436275Y-78928312D01*
X127437558Y-78965151D01*
X127437986Y-79002401D01*
X127437695Y-79031632D01*
X127436822Y-79060545D01*
X127435368Y-79089138D01*
X127433333Y-79117413D01*
X127430716Y-79145370D01*
X127427517Y-79173007D01*
X127423736Y-79200326D01*
X127419374Y-79227327D01*
X127414431Y-79254008D01*
X127408905Y-79280371D01*
X127402799Y-79306416D01*
X127396110Y-79332141D01*
X127388840Y-79357548D01*
X127380988Y-79382636D01*
X127372555Y-79407406D01*
X127363540Y-79431857D01*
X127353944Y-79455989D01*
X127343766Y-79479803D01*
X127333006Y-79503298D01*
X127321665Y-79526474D01*
X127309742Y-79549332D01*
X127297238Y-79571871D01*
X127284151Y-79594091D01*
X127270484Y-79615993D01*
X127256235Y-79637576D01*
X127241404Y-79658840D01*
X127225991Y-79679785D01*
X127209997Y-79700412D01*
X127193421Y-79720721D01*
X127176264Y-79740710D01*
X127158525Y-79760381D01*
X127140205Y-79779733D01*
X127121438Y-79798588D01*
X127102359Y-79816844D01*
X127082969Y-79834502D01*
X127063268Y-79851561D01*
X127043256Y-79868022D01*
X127022932Y-79883884D01*
X127002296Y-79899147D01*
X126981349Y-79913812D01*
X126960091Y-79927879D01*
X126938522Y-79941346D01*
X126916641Y-79954216D01*
X126894448Y-79966486D01*
X126871944Y-79978158D01*
X126849129Y-79989232D01*
X126826003Y-79999707D01*
X126802565Y-80009583D01*
X126778815Y-80018861D01*
X126754754Y-80027540D01*
X126730382Y-80035621D01*
X126705699Y-80043103D01*
X126680704Y-80049986D01*
X126655397Y-80056271D01*
X126629779Y-80061958D01*
X126603850Y-80067045D01*
X126577610Y-80071535D01*
X126551058Y-80075425D01*
X126524194Y-80078717D01*
X126497019Y-80081411D01*
X126469533Y-80083506D01*
X126441735Y-80085002D01*
X126413626Y-80085900D01*
X126385206Y-80086200D01*
X126371026Y-80086120D01*
X126342963Y-80085485D01*
X126315299Y-80084215D01*
X126288031Y-80082311D01*
X126261161Y-80079771D01*
X126234688Y-80076596D01*
X126208613Y-80072787D01*
X126182935Y-80068342D01*
X126157655Y-80063263D01*
X126132772Y-80057549D01*
X126108287Y-80051200D01*
X126084198Y-80044216D01*
X126048812Y-80032549D01*
X126014319Y-80019454D01*
X125980720Y-80004930D01*
X126002434Y-79936689D01*
X126016210Y-79940370D01*
X126042673Y-79947019D01*
X126067682Y-79952719D01*
X126096899Y-79958508D01*
X126123843Y-79962812D01*
X126153178Y-79966018D01*
X126179241Y-79967087D01*
X126207167Y-79966789D01*
X126234801Y-79965895D01*
X126262143Y-79964405D01*
X126289193Y-79962318D01*
X126315951Y-79959635D01*
X126342417Y-79956357D01*
X126368591Y-79952482D01*
X126394473Y-79948011D01*
X126420063Y-79942943D01*
X126445361Y-79937280D01*
X126470367Y-79931020D01*
X126495081Y-79924165D01*
X126519502Y-79916713D01*
X126543632Y-79908665D01*
X126567470Y-79900021D01*
X126591016Y-79890781D01*
X126614270Y-79880944D01*
X126637232Y-79870512D01*
X126659902Y-79859483D01*
X126682279Y-79847858D01*
X126704365Y-79835638D01*
X126726159Y-79822820D01*
X126747661Y-79809407D01*
X126768870Y-79795398D01*
X126789788Y-79780792D01*
X126810414Y-79765591D01*
X126830747Y-79749793D01*
X126850789Y-79733399D01*
X126870539Y-79716409D01*
X126889997Y-79698823D01*
X126909162Y-79680640D01*
X126928036Y-79661862D01*
X126946433Y-79642597D01*
X126964245Y-79623032D01*
X126981474Y-79603169D01*
X126998119Y-79583006D01*
X127014180Y-79562544D01*
X127029656Y-79541782D01*
X127044549Y-79520722D01*
X127058858Y-79499362D01*
X127072582Y-79477703D01*
X127085723Y-79455744D01*
X127098280Y-79433486D01*
X127110252Y-79410929D01*
X127121641Y-79388073D01*
X127132445Y-79364917D01*
X127142666Y-79341462D01*
X127152302Y-79317708D01*
X127161354Y-79293654D01*
X127169823Y-79269301D01*
X127177707Y-79244649D01*
X127185008Y-79219698D01*
X127191724Y-79194447D01*
X127197856Y-79168897D01*
X127203404Y-79143048D01*
X127208369Y-79116899D01*
X127212749Y-79090452D01*
X127216545Y-79063705D01*
X127219757Y-79036658D01*
X127222385Y-79009313D01*
X127224429Y-78981668D01*
X127225889Y-78953723D01*
X127226765Y-78925480D01*
X127227057Y-78896937D01*
X127226728Y-78866367D01*
X127225739Y-78836150D01*
X127224091Y-78806287D01*
X127221784Y-78776778D01*
X127218818Y-78747623D01*
X127215193Y-78718821D01*
X127210908Y-78690373D01*
X127205965Y-78662280D01*
X127200362Y-78634540D01*
X127194100Y-78607153D01*
X127187179Y-78580121D01*
X127179599Y-78553442D01*
X127171359Y-78527117D01*
X127162461Y-78501146D01*
X127152903Y-78475529D01*
X127142686Y-78450266D01*
X127131810Y-78425356D01*
X127120275Y-78400800D01*
X127108081Y-78376598D01*
X127095227Y-78352750D01*
X127081715Y-78329256D01*
X127067543Y-78306115D01*
X127052712Y-78283329D01*
X127037222Y-78260896D01*
X127021073Y-78238817D01*
X127004265Y-78217091D01*
X126986797Y-78195720D01*
X126968670Y-78174702D01*
X126949885Y-78154038D01*
X126930440Y-78133728D01*
X126910336Y-78113772D01*
X126889572Y-78094169D01*
X126868285Y-78075047D01*
X126846609Y-78056532D01*
X126824544Y-78038625D01*
X126802090Y-78021324D01*
X126779247Y-78004630D01*
X126756015Y-77988543D01*
X126732394Y-77973063D01*
X126708384Y-77958191D01*
X126683985Y-77943925D01*
X126659197Y-77930266D01*
X126634020Y-77917215D01*
X126608454Y-77904770D01*
X126582500Y-77892933D01*
X126556156Y-77881703D01*
X126529424Y-77871079D01*
X126502302Y-77861063D01*
X126474792Y-77851654D01*
X126446892Y-77842851D01*
X126418604Y-77834656D01*
X126389927Y-77827068D01*
X126360861Y-77820087D01*
X126331405Y-77813713D01*
X126301561Y-77807946D01*
X126271328Y-77802786D01*
X126240706Y-77798233D01*
X126209695Y-77794288D01*
X126178295Y-77790949D01*
X126146506Y-77788217D01*
X126114329Y-77786092D01*
X126081762Y-77784575D01*
X126048806Y-77783664D01*
X126015461Y-77783361D01*
X125986461Y-77783610D01*
X125957696Y-77784357D01*
X125929168Y-77785602D01*
X125900876Y-77787345D01*
X125872820Y-77789586D01*
X125845001Y-77792325D01*
X125817418Y-77795562D01*
X125790071Y-77799297D01*
X125762960Y-77803530D01*
X125736086Y-77808261D01*
X125709448Y-77813490D01*
X125683046Y-77819217D01*
X125656881Y-77825442D01*
X125630951Y-77832164D01*
X125605258Y-77839385D01*
X125579802Y-77847104D01*
X125554581Y-77855321D01*
X125529597Y-77864036D01*
X125504850Y-77873249D01*
X125480338Y-77882960D01*
X125456063Y-77893169D01*
X125432024Y-77903876D01*
X125408221Y-77915081D01*
X125384655Y-77926784D01*
X125361324Y-77938985D01*
X125338230Y-77951684D01*
X125315373Y-77964881D01*
X125292752Y-77978576D01*
X125270366Y-77992769D01*
X125248218Y-78007460D01*
X125226305Y-78022649D01*
X125204629Y-78038336D01*
X125183272Y-78054441D01*
X125162317Y-78070886D01*
X125141765Y-78087670D01*
X125121615Y-78104793D01*
X125101867Y-78122256D01*
X125082521Y-78140058D01*
X125063578Y-78158199D01*
X125045037Y-78176680D01*
X125026898Y-78195499D01*
X125009162Y-78214658D01*
X124991828Y-78234157D01*
X124974896Y-78253994D01*
X124958366Y-78274171D01*
X124942239Y-78294687D01*
X124926514Y-78315542D01*
X124911191Y-78336737D01*
X124896270Y-78358271D01*
X124881752Y-78380144D01*
X124867636Y-78402356D01*
X124853922Y-78424908D01*
X124840611Y-78447799D01*
X124827702Y-78471029D01*
X124815195Y-78494599D01*
X124803090Y-78518507D01*
X124791388Y-78542755D01*
X124780088Y-78567343D01*
X124769190Y-78592269D01*
X124758694Y-78617535D01*
X124748601Y-78643140D01*
X124738910Y-78669084D01*
X124729621Y-78695368D01*
X124720735Y-78721991D01*
X124751038Y-78726793D01*
X124781462Y-78733754D01*
X124812005Y-78742874D01*
X124842668Y-78754154D01*
X124873451Y-78767592D01*
X124904354Y-78783190D01*
X124935378Y-78800947D01*
X124966521Y-78820863D01*
X124987349Y-78835340D01*
X125008231Y-78850777D01*
X125029167Y-78867174D01*
X125050155Y-78884530D01*
X125060499Y-78893445D01*
X125080200Y-78911262D01*
X125098589Y-78929059D01*
X125123709Y-78955718D01*
X125145873Y-78982333D01*
X125165082Y-79008905D01*
X125181336Y-79035434D01*
X125194635Y-79061919D01*
X125204979Y-79088360D01*
X125212367Y-79114757D01*
X125216800Y-79141111D01*
X125218277Y-79167421D01*
X125215376Y-79192401D01*
X125206674Y-79217556D01*
X125192171Y-79242884D01*
X125175652Y-79264125D01*
X125155105Y-79285487D01*
X125135767Y-79302664D01*
X125133778Y-79277664D01*
X125127399Y-79230045D01*
X125117822Y-79185601D01*
X125105046Y-79144331D01*
X125089072Y-79106236D01*
X125069898Y-79071316D01*
X125047526Y-79039570D01*
X125021955Y-79010999D01*
X124993185Y-78985602D01*
X124961216Y-78963380D01*
X124926048Y-78944332D01*
X124887682Y-78928459D01*
X124846117Y-78915761D01*
X124801353Y-78906237D01*
X124753390Y-78899888D01*
X124728209Y-78897904D01*
X124702228Y-78896714D01*
X124675448Y-78896317D01*
X124673586Y-78905622D01*
X124682892Y-78916789D01*
X124699684Y-78935719D01*
X124716249Y-78954431D01*
X124748700Y-78991205D01*
X124780245Y-79027112D01*
X124810884Y-79062151D01*
X124840616Y-79096323D01*
X124869441Y-79129627D01*
X124897361Y-79162063D01*
X124924374Y-79193632D01*
X124950480Y-79224334D01*
X124975681Y-79254168D01*
X124999975Y-79283134D01*
X125023363Y-79311233D01*
X125045844Y-79338464D01*
X125067419Y-79364827D01*
X125088088Y-79390323D01*
X125107850Y-79414952D01*
X125121597Y-79431949D01*
X125148050Y-79464630D01*
X125173117Y-79495561D01*
X125196798Y-79524743D01*
X125219093Y-79552176D01*
X125240001Y-79577858D01*
X125259524Y-79601791D01*
X125277660Y-79623975D01*
X125294410Y-79644408D01*
X125316937Y-79671778D01*
X125336344Y-79695211D01*
X125357369Y-79720332D01*
X125375853Y-79741890D01*
X125375959Y-79684567D01*
X125376277Y-79627911D01*
X125376807Y-79571920D01*
X125377549Y-79516597D01*
X125378503Y-79461939D01*
X125379670Y-79407948D01*
X125381048Y-79354624D01*
X125382638Y-79301966D01*
X125384441Y-79249974D01*
X125386455Y-79198649D01*
X125388682Y-79147990D01*
X125391120Y-79097997D01*
X125393771Y-79048671D01*
X125396633Y-79000012D01*
X125399708Y-78952019D01*
X125402994Y-78904692D01*
X125406493Y-78858031D01*
X125410204Y-78812038D01*
X125414127Y-78766710D01*
X125418262Y-78722049D01*
X125422608Y-78678054D01*
X125427167Y-78634726D01*
X125431938Y-78592064D01*
X125436921Y-78550069D01*
X125442116Y-78508740D01*
X125447523Y-78468077D01*
X125453143Y-78428081D01*
X125458974Y-78388752D01*
X125465017Y-78350088D01*
X125471272Y-78312091D01*
X125477740Y-78274761D01*
X125484419Y-78238097D01*
X125550179Y-78280283D01*
X125577795Y-78298816D01*
X125603570Y-78315954D01*
X125627503Y-78331696D01*
X125649594Y-78346042D01*
X125674618Y-78362012D01*
X125696765Y-78375801D01*
X125719542Y-78389469D01*
X125902553Y-78498035D01*
X125904191Y-78498898D01*
X125925238Y-78512616D01*
X125946600Y-78527193D01*
X125895729Y-78629555D01*
X125877374Y-78613146D01*
X125854783Y-78593779D01*
X125834345Y-78577281D01*
X125811823Y-78560693D01*
X125789235Y-78546705D01*
X125762348Y-78537739D01*
X125740169Y-78541810D01*
X125719297Y-78556123D01*
X125704369Y-78577497D01*
X125694106Y-78602878D01*
X125690251Y-78616984D01*
X125685061Y-78641678D01*
X125679812Y-78673099D01*
X125675837Y-78701080D01*
X125671829Y-78732844D01*
X125667789Y-78768393D01*
X125665077Y-78794194D01*
X125662351Y-78821678D01*
X125659610Y-78850843D01*
X125656855Y-78881689D01*
X125654085Y-78914218D01*
X125651300Y-78948428D01*
X125647865Y-78990128D01*
X125644539Y-79031632D01*
X125641322Y-79072939D01*
X125638214Y-79114050D01*
X125635215Y-79154964D01*
X125632325Y-79195682D01*
X125629545Y-79236204D01*
X125626873Y-79276530D01*
X125624310Y-79316660D01*
X125621857Y-79356593D01*
X125619512Y-79396330D01*
X125617276Y-79435870D01*
X125615150Y-79475214D01*
X125613133Y-79514362D01*
X125611224Y-79553314D01*
X125609425Y-79592069D01*
X125607735Y-79630628D01*
X125606153Y-79668991D01*
X125604681Y-79707158D01*
X125603318Y-79745128D01*
X125602064Y-79782902D01*
X125600919Y-79820480D01*
X125599883Y-79857861D01*
X125598956Y-79895046D01*
X125598138Y-79932035D01*
X125597429Y-79968827D01*
X125596829Y-80005423D01*
X125596339Y-80041823D01*
X125595957Y-80078027D01*
X125595684Y-80114034D01*
X125595521Y-80149845D01*
X125595466Y-80185460D01*
X125526605Y-80104811D01*
X125094202Y-79563842D01*
X125073729Y-79538678D01*
X125056136Y-79517312D01*
X125036623Y-79493807D01*
X125015191Y-79468166D01*
X124991840Y-79440387D01*
X124975206Y-79420681D01*
X124957719Y-79400024D01*
X124939379Y-79378417D01*
X124920186Y-79355861D01*
X124900140Y-79332354D01*
X124879241Y-79307898D01*
X124857489Y-79282492D01*
X124834884Y-79256135D01*
X124827859Y-79247958D01*
X124807627Y-79224409D01*
X124788659Y-79202332D01*
X124770956Y-79181726D01*
X124754519Y-79162593D01*
X124734570Y-79139373D01*
X124716870Y-79118770D01*
X124697907Y-79096696D01*
X124679790Y-79075606D01*
X124651226Y-79036056D01*
X124647675Y-79060776D01*
X124643610Y-79090034D01*
X124639678Y-79119334D01*
X124635879Y-79148674D01*
X124632214Y-79178056D01*
X124628682Y-79207479D01*
X124625283Y-79236944D01*
X124622018Y-79266449D01*
X124618885Y-79295996D01*
X124615886Y-79325584D01*
X124613021Y-79355213D01*
X124610289Y-79384883D01*
X124607690Y-79414594D01*
X124605224Y-79444347D01*
X124602891Y-79474141D01*
X124600692Y-79503976D01*
X124598626Y-79533852D01*
X124596694Y-79563770D01*
X124594894Y-79593728D01*
X124593228Y-79623728D01*
X124591695Y-79653769D01*
X124590296Y-79683851D01*
X124589030Y-79713975D01*
X124587897Y-79744139D01*
X124586897Y-79774345D01*
X124586031Y-79804592D01*
X124585298Y-79834880D01*
X124584698Y-79865210D01*
X124584232Y-79895580D01*
X124583898Y-79925992D01*
X124583698Y-79956445D01*
X124583632Y-79986939D01*
X124585493Y-80196006D01*
X124564554Y-80176976D01*
X124543613Y-80157807D01*
X124522669Y-80138498D01*
X124501723Y-80119050D01*
X124480774Y-80099463D01*
X124459823Y-80079736D01*
X124438869Y-80059870D01*
X124417914Y-80039865D01*
X124396955Y-80019720D01*
X124375995Y-79999436D01*
X124355031Y-79979013D01*
X124334066Y-79958450D01*
X124313098Y-79937748D01*
X124292127Y-79916907D01*
X124271154Y-79895926D01*
X124250179Y-79874806D01*
X124229201Y-79853547D01*
X124208221Y-79832148D01*
X124187239Y-79810610D01*
X124166254Y-79788932D01*
X124145266Y-79767116D01*
X124124277Y-79745159D01*
X124103284Y-79723064D01*
X124082290Y-79700829D01*
X124061293Y-79678455D01*
X124040293Y-79655942D01*
X124019291Y-79633289D01*
X123998287Y-79610496D01*
X123977280Y-79587565D01*
X123956271Y-79564494D01*
X123935259Y-79541284D01*
X123914245Y-79517934D01*
X123893355Y-79494601D01*
X123872794Y-79471515D01*
X123852561Y-79448678D01*
X123832656Y-79426089D01*
X123813079Y-79403749D01*
X123793831Y-79381657D01*
X123774912Y-79359814D01*
X123756320Y-79338219D01*
X123738058Y-79316872D01*
X123720123Y-79295774D01*
X123702517Y-79274924D01*
X123685239Y-79254323D01*
X123668289Y-79233970D01*
X123651668Y-79213865D01*
X123635375Y-79194009D01*
X123619411Y-79174401D01*
X123588467Y-79135930D01*
X123558837Y-79098453D01*
X123530520Y-79061969D01*
X123503517Y-79026480D01*
X123477827Y-78991983D01*
X123453451Y-78958480D01*
X123430388Y-78925971D01*
X123425335Y-78918650D01*
X123600955Y-78918650D01*
X123614094Y-78940986D01*
X123628232Y-78964103D01*
X123643368Y-78987999D01*
X123659503Y-79012676D01*
X123676636Y-79038133D01*
X123694767Y-79064371D01*
X123713897Y-79091389D01*
X123734026Y-79119187D01*
X123755152Y-79147766D01*
X123777278Y-79177124D01*
X123800401Y-79207264D01*
X123824523Y-79238183D01*
X123849644Y-79269883D01*
X123875762Y-79302363D01*
X123902880Y-79335624D01*
X123930995Y-79369664D01*
X123959399Y-79403642D01*
X123987537Y-79436869D01*
X124015408Y-79469344D01*
X124043012Y-79501068D01*
X124070350Y-79532041D01*
X124097421Y-79562262D01*
X124124226Y-79591733D01*
X124150764Y-79620452D01*
X124177035Y-79648419D01*
X124203040Y-79675636D01*
X124228779Y-79702101D01*
X124254250Y-79727816D01*
X124279456Y-79752778D01*
X124304394Y-79776990D01*
X124329066Y-79800451D01*
X124353472Y-79823160D01*
X124353472Y-79808271D01*
X124353551Y-79772300D01*
X124353789Y-79736816D01*
X124354186Y-79701819D01*
X124354742Y-79667309D01*
X124355456Y-79633287D01*
X124356329Y-79599751D01*
X124357361Y-79566703D01*
X124358551Y-79534142D01*
X124359900Y-79502067D01*
X124361408Y-79470480D01*
X124363075Y-79439380D01*
X124364900Y-79408767D01*
X124366885Y-79378642D01*
X124369027Y-79349003D01*
X124371329Y-79319851D01*
X124373789Y-79291187D01*
X124376408Y-79263009D01*
X124379186Y-79235319D01*
X124382123Y-79208115D01*
X124385218Y-79181399D01*
X124388472Y-79155170D01*
X124391884Y-79129428D01*
X124395456Y-79104173D01*
X124399186Y-79079405D01*
X124407122Y-79031331D01*
X124415694Y-78985205D01*
X124424900Y-78941027D01*
X124434741Y-78898798D01*
X124420473Y-78900659D01*
X124377890Y-78904791D01*
X124336683Y-78908656D01*
X124296853Y-78912255D01*
X124258399Y-78915587D01*
X124221322Y-78918653D01*
X124185621Y-78921452D01*
X124151297Y-78923984D01*
X124118349Y-78926250D01*
X124086778Y-78928249D01*
X124056583Y-78929982D01*
X124027764Y-78931448D01*
X124000322Y-78932648D01*
X123974257Y-78933581D01*
X123937739Y-78934480D01*
X123904319Y-78934780D01*
X123883141Y-78934717D01*
X123851929Y-78934386D01*
X123821382Y-78933772D01*
X123791501Y-78932874D01*
X123762284Y-78931693D01*
X123733733Y-78930228D01*
X123705847Y-78928479D01*
X123678626Y-78926447D01*
X123652070Y-78924132D01*
X123626180Y-78921533D01*
X123600955Y-78918650D01*
X123425335Y-78918650D01*
X123408638Y-78894456D01*
X123380098Y-78888794D01*
X123351864Y-78882821D01*
X123323935Y-78876537D01*
X123296311Y-78869941D01*
X123268993Y-78863034D01*
X123241980Y-78855815D01*
X123215272Y-78848285D01*
X123188870Y-78840444D01*
X123162773Y-78832291D01*
X123136981Y-78823827D01*
X123111494Y-78815052D01*
X123086313Y-78805965D01*
X123061438Y-78796566D01*
X123036868Y-78786857D01*
X123012603Y-78776835D01*
X122988643Y-78766503D01*
X122964989Y-78755859D01*
X122941640Y-78744904D01*
X122918596Y-78733637D01*
X122895858Y-78722059D01*
X122873425Y-78710169D01*
X122851297Y-78697968D01*
X122829475Y-78685456D01*
X122807958Y-78672632D01*
X122786747Y-78659497D01*
X122765840Y-78646050D01*
X122724944Y-78618223D01*
X122685269Y-78589150D01*
X122646815Y-78558832D01*
X122610080Y-78527694D01*
X122575714Y-78496164D01*
X122543719Y-78464241D01*
X122514093Y-78431926D01*
X122486838Y-78399218D01*
X122461953Y-78366117D01*
X122439437Y-78332624D01*
X122419292Y-78298739D01*
X122401517Y-78264461D01*
X122386112Y-78229790D01*
X122373076Y-78194726D01*
X122362411Y-78159270D01*
X122354116Y-78123422D01*
X122353289Y-78118364D01*
X122566166Y-78118364D01*
X122567189Y-78150844D01*
X122570257Y-78182680D01*
X122575370Y-78213871D01*
X122582529Y-78244417D01*
X122591733Y-78274319D01*
X122602982Y-78303576D01*
X122616276Y-78332188D01*
X122631616Y-78360156D01*
X122649001Y-78387479D01*
X122668432Y-78414158D01*
X122689907Y-78440192D01*
X122713428Y-78465581D01*
X122738995Y-78490326D01*
X122766606Y-78514426D01*
X122796263Y-78537882D01*
X122827965Y-78560693D01*
X122848796Y-78574649D01*
X122870810Y-78588135D01*
X122894006Y-78601151D01*
X122918385Y-78613696D01*
X122943947Y-78625772D01*
X122970691Y-78637377D01*
X122998617Y-78648513D01*
X123027727Y-78659178D01*
X123058018Y-78669373D01*
X123089493Y-78679098D01*
X123122150Y-78688352D01*
X123155990Y-78697137D01*
X123191012Y-78705452D01*
X123227217Y-78713296D01*
X123264604Y-78720670D01*
X123303174Y-78727574D01*
X123290306Y-78705410D01*
X123277913Y-78682965D01*
X123265995Y-78660239D01*
X123254552Y-78637232D01*
X123243584Y-78613943D01*
X123233091Y-78590374D01*
X123223073Y-78566523D01*
X123213530Y-78542392D01*
X123204461Y-78517979D01*
X123195868Y-78493285D01*
X123187750Y-78468310D01*
X123180107Y-78443054D01*
X123172938Y-78417517D01*
X123166245Y-78391698D01*
X123160027Y-78365599D01*
X123154284Y-78339218D01*
X123643140Y-78339218D01*
X123643140Y-78445923D01*
X123587927Y-78449025D01*
X123579416Y-78449594D01*
X123548072Y-78453166D01*
X123521052Y-78458812D01*
X123493356Y-78468787D01*
X123469038Y-78485036D01*
X123454447Y-78505952D01*
X123449583Y-78531535D01*
X123451128Y-78561536D01*
X123454588Y-78586584D01*
X123460026Y-78612562D01*
X123467442Y-78639471D01*
X123476835Y-78667310D01*
X123488205Y-78696080D01*
X123501553Y-78725781D01*
X123512861Y-78748667D01*
X123692150Y-78736260D01*
X123729930Y-78736204D01*
X123768205Y-78736037D01*
X123806973Y-78735758D01*
X123846236Y-78735368D01*
X123885994Y-78734866D01*
X123926246Y-78734253D01*
X123966992Y-78733528D01*
X124008232Y-78732692D01*
X124049967Y-78731745D01*
X124092196Y-78730686D01*
X124134920Y-78729515D01*
X124178138Y-78728233D01*
X124221850Y-78726840D01*
X124266057Y-78725335D01*
X124310758Y-78723719D01*
X124355953Y-78721991D01*
X124304906Y-78666686D01*
X124254282Y-78613137D01*
X124204080Y-78561343D01*
X124154302Y-78511305D01*
X124104946Y-78463023D01*
X124056013Y-78416496D01*
X124007503Y-78371726D01*
X123959416Y-78328711D01*
X123911752Y-78287451D01*
X123864511Y-78247948D01*
X123817692Y-78210200D01*
X123771297Y-78174208D01*
X123725324Y-78139971D01*
X123679774Y-78107491D01*
X123634647Y-78076766D01*
X123589943Y-78047796D01*
X123545662Y-78020583D01*
X123501804Y-77995125D01*
X123458368Y-77971423D01*
X123415356Y-77949476D01*
X123372766Y-77929286D01*
X123330599Y-77910851D01*
X123288855Y-77894171D01*
X123247534Y-77879248D01*
X123206636Y-77866080D01*
X123166160Y-77854668D01*
X123126108Y-77845011D01*
X123086478Y-77837111D01*
X123047272Y-77830966D01*
X123008488Y-77826576D01*
X122970127Y-77823943D01*
X122932189Y-77823065D01*
X122901276Y-77823785D01*
X122871586Y-77825944D01*
X122843116Y-77829542D01*
X122815868Y-77834581D01*
X122789841Y-77841058D01*
X122765036Y-77848975D01*
X122741452Y-77858332D01*
X122719089Y-77869128D01*
X122691172Y-77885762D01*
X122665427Y-77904955D01*
X122642162Y-77926067D01*
X122622000Y-77948769D01*
X122604940Y-77973060D01*
X122590981Y-77998942D01*
X122580125Y-78026413D01*
X122572370Y-78055473D01*
X122567717Y-78086124D01*
X122566166Y-78118364D01*
X122353289Y-78118364D01*
X122348191Y-78087181D01*
X122344636Y-78050547D01*
X122343451Y-78013521D01*
X122343953Y-77992362D01*
X122346586Y-77961543D01*
X122351477Y-77931825D01*
X122358625Y-77903208D01*
X122368031Y-77875693D01*
X122379694Y-77849279D01*
X122393614Y-77823966D01*
X122409792Y-77799755D01*
X122428227Y-77776646D01*
X122448919Y-77754637D01*
X122471869Y-77733731D01*
X122488198Y-77720509D01*
X122513726Y-77702276D01*
X122540498Y-77685962D01*
X122568513Y-77671567D01*
X122597772Y-77659091D01*
X122628273Y-77648535D01*
X122660018Y-77639899D01*
X122693005Y-77633181D01*
X122727236Y-77628383D01*
X122762711Y-77625504D01*
X122799428Y-77624544D01*
X122822718Y-77624797D01*
X122869455Y-77626818D01*
X122916400Y-77630860D01*
X122963553Y-77636923D01*
X123010915Y-77645008D01*
X123058486Y-77655113D01*
X123106264Y-77667239D01*
X123130232Y-77674060D01*
X123154251Y-77681387D01*
X123178323Y-77689219D01*
X123202447Y-77697555D01*
X123226623Y-77706398D01*
X123250851Y-77715745D01*
X123275131Y-77725598D01*
X123299463Y-77735956D01*
X123323848Y-77746819D01*
X123348284Y-77758188D01*
X123372772Y-77770061D01*
X123397313Y-77782440D01*
X123421906Y-77795325D01*
X123446551Y-77808714D01*
X123471248Y-77822609D01*
X123495997Y-77837009D01*
X123520798Y-77851915D01*
X123545651Y-77867325D01*
X123570556Y-77883241D01*
X123595596Y-77899663D01*
X123620851Y-77916669D01*
X123646321Y-77934259D01*
X123672007Y-77952433D01*
X123697909Y-77971191D01*
X123724027Y-77990533D01*
X123750360Y-78010459D01*
X123776909Y-78030969D01*
X123803674Y-78052063D01*
X123830654Y-78073741D01*
X123857850Y-78096003D01*
X123885262Y-78118849D01*
X123912889Y-78142279D01*
X123940732Y-78166293D01*
X123968791Y-78190891D01*
X123997065Y-78216074D01*
X124025556Y-78241840D01*
X124054261Y-78268190D01*
X124083183Y-78295124D01*
X124112320Y-78322643D01*
X124141673Y-78350745D01*
X124171241Y-78379431D01*
X124201025Y-78408702D01*
X124231025Y-78438556D01*
X124261241Y-78468995D01*
X124291672Y-78500017D01*
X124322319Y-78531624D01*
X124353181Y-78563814D01*
X124384259Y-78596589D01*
X124415553Y-78629947D01*
X124447063Y-78663890D01*
X124478788Y-78698417D01*
X124487044Y-78667108D01*
X124495761Y-78636229D01*
X124504938Y-78605778D01*
X124514576Y-78575756D01*
X124524674Y-78546164D01*
X124535233Y-78517000D01*
X124546252Y-78488265D01*
X124557731Y-78459959D01*
X124569671Y-78432082D01*
X124582071Y-78404634D01*
X124594932Y-78377615D01*
X124608253Y-78351025D01*
X124622035Y-78324864D01*
X124636277Y-78299131D01*
X124650979Y-78273828D01*
X124666142Y-78248954D01*
X124681765Y-78224508D01*
X124697849Y-78200491D01*
X124714393Y-78176904D01*
X124731398Y-78153745D01*
X124748863Y-78131015D01*
X124766788Y-78108714D01*
X124785174Y-78086843D01*
X124804021Y-78065400D01*
X124823327Y-78044385D01*
X124843095Y-78023800D01*
X124863322Y-78003644D01*
X124884010Y-77983917D01*
X124905159Y-77964619D01*
X124926768Y-77945749D01*
X124948837Y-77927309D01*
X124971367Y-77909297D01*
X124994274Y-77891778D01*
X125017551Y-77874815D01*
X125041200Y-77858409D01*
X125065219Y-77842558D01*
X125089608Y-77827264D01*
X125114369Y-77812526D01*
X125139500Y-77798344D01*
X125165002Y-77784718D01*
X125190875Y-77771648D01*
X125217119Y-77759135D01*
X125243733Y-77747177D01*
X125270718Y-77735776D01*
X125298074Y-77724931D01*
X125325801Y-77714642D01*
X125353899Y-77704909D01*
X125382367Y-77695732D01*
X125411206Y-77687112D01*
X125440416Y-77679048D01*
X125469996Y-77671540D01*
X125499948Y-77664588D01*
X125530270Y-77658192D01*
X125560963Y-77652352D01*
X125592026Y-77647069D01*
X125623461Y-77642341D01*
X125655266Y-77638170D01*
X125687442Y-77634555D01*
X125719989Y-77631496D01*
X125752906Y-77628993D01*
X125786195Y-77627047D01*
X125819854Y-77625657D01*
X125853884Y-77624822D01*
X125888284Y-77624544D01*
X125930162Y-77624925D01*
G37*
D11*
%TO.C,REF\u002A\u002A*%
X130937000Y-81788000D02*
G75*
G03*
X130937000Y-81788000I-508000J0D01*
G01*
G36*
X131445000Y-81280000D02*
G01*
X131318000Y-81280000D01*
X131318000Y-80899000D01*
X131445000Y-80899000D01*
X131445000Y-81280000D01*
G37*
G36*
X131318000Y-80899000D02*
G01*
X130937000Y-80899000D01*
X130937000Y-80772000D01*
X131318000Y-80772000D01*
X131318000Y-80899000D01*
G37*
G36*
X131445000Y-80899000D02*
G01*
X130810000Y-81534000D01*
X130810000Y-81407000D01*
X131445000Y-80772000D01*
X131445000Y-80899000D01*
G37*
G36*
X130810000Y-81407000D02*
G01*
X130683000Y-81407000D01*
X131318000Y-80772000D01*
X131445000Y-80772000D01*
X130810000Y-81407000D01*
G37*
G36*
X131254500Y-81343500D02*
G01*
X131127500Y-81470500D01*
X130746500Y-81089500D01*
X130873500Y-80962500D01*
X131254500Y-81343500D01*
G37*
G36*
X130530600Y-83134200D02*
G01*
X130327400Y-83134200D01*
X130327400Y-82372200D01*
X130530600Y-82372200D01*
X130530600Y-83134200D01*
G37*
G36*
X130759200Y-82829400D02*
G01*
X130098800Y-82829400D01*
X130098800Y-82651600D01*
X130759200Y-82651600D01*
X130759200Y-82829400D01*
G37*
G36*
X130175000Y-81407000D02*
G01*
X130048000Y-81407000D01*
X129413000Y-80772000D01*
X129540000Y-80772000D01*
X130175000Y-81407000D01*
G37*
G36*
X130048000Y-81407000D02*
G01*
X130048000Y-81534000D01*
X129413000Y-80899000D01*
X129413000Y-80772000D01*
X130048000Y-81407000D01*
G37*
G36*
X129921000Y-80899000D02*
G01*
X129540000Y-80899000D01*
X129540000Y-80772000D01*
X129921000Y-80772000D01*
X129921000Y-80899000D01*
G37*
G36*
X129540000Y-81280000D02*
G01*
X129413000Y-81280000D01*
X129413000Y-80899000D01*
X129540000Y-80899000D01*
X129540000Y-81280000D01*
G37*
%TD*%
M02*
