%TF.GenerationSoftware,KiCad,Pcbnew,7.0.6*%
%TF.CreationDate,2024-09-24T20:19:06-04:00*%
%TF.ProjectId,ESP32_Temp_Humidity,45535033-325f-4546-956d-705f48756d69,rev?*%
%TF.SameCoordinates,Original*%
%TF.FileFunction,Soldermask,Top*%
%TF.FilePolarity,Negative*%
%FSLAX46Y46*%
G04 Gerber Fmt 4.6, Leading zero omitted, Abs format (unit mm)*
G04 Created by KiCad (PCBNEW 7.0.6) date 2024-09-24 20:19:06*
%MOMM*%
%LPD*%
G01*
G04 APERTURE LIST*
G04 Aperture macros list*
%AMRoundRect*
0 Rectangle with rounded corners*
0 $1 Rounding radius*
0 $2 $3 $4 $5 $6 $7 $8 $9 X,Y pos of 4 corners*
0 Add a 4 corners polygon primitive as box body*
4,1,4,$2,$3,$4,$5,$6,$7,$8,$9,$2,$3,0*
0 Add four circle primitives for the rounded corners*
1,1,$1+$1,$2,$3*
1,1,$1+$1,$4,$5*
1,1,$1+$1,$6,$7*
1,1,$1+$1,$8,$9*
0 Add four rect primitives between the rounded corners*
20,1,$1+$1,$2,$3,$4,$5,0*
20,1,$1+$1,$4,$5,$6,$7,0*
20,1,$1+$1,$6,$7,$8,$9,0*
20,1,$1+$1,$8,$9,$2,$3,0*%
G04 Aperture macros list end*
%ADD10R,4.699000X3.429000*%
%ADD11C,1.100000*%
%ADD12R,1.100000X2.500000*%
%ADD13O,1.900000X3.500000*%
%ADD14RoundRect,0.237500X-0.250000X-0.237500X0.250000X-0.237500X0.250000X0.237500X-0.250000X0.237500X0*%
%ADD15R,1.800000X1.800000*%
%ADD16C,1.800000*%
%ADD17R,1.700000X1.700000*%
%ADD18O,1.700000X1.700000*%
%ADD19RoundRect,0.237500X-0.237500X0.250000X-0.237500X-0.250000X0.237500X-0.250000X0.237500X0.250000X0*%
%ADD20C,1.524000*%
%ADD21RoundRect,0.250000X-1.100000X0.412500X-1.100000X-0.412500X1.100000X-0.412500X1.100000X0.412500X0*%
G04 APERTURE END LIST*
D10*
%TO.C,TP5*%
X149098000Y-101219000D03*
%TD*%
%TO.C,TP4*%
X149225000Y-88773000D03*
%TD*%
%TO.C,TP3*%
X142367000Y-50673000D03*
%TD*%
%TO.C,TP2*%
X113030000Y-58039000D03*
%TD*%
%TO.C,TP1*%
X118872000Y-50927000D03*
%TD*%
D11*
%TO.C,J1*%
X128510000Y-48810000D03*
X133110000Y-48810000D03*
D12*
X127310000Y-51560000D03*
X129810000Y-51560000D03*
X131810000Y-51560000D03*
X134310000Y-51560000D03*
D13*
X125110000Y-48810000D03*
X136510000Y-48810000D03*
%TD*%
D14*
%TO.C,R2*%
X112014000Y-82804000D03*
X113839000Y-82804000D03*
%TD*%
%TO.C,R6*%
X112117500Y-72644000D03*
X113942500Y-72644000D03*
%TD*%
%TO.C,R1*%
X112014000Y-86106000D03*
X113839000Y-86106000D03*
%TD*%
%TO.C,R5*%
X112117500Y-75976000D03*
X113942500Y-75976000D03*
%TD*%
D15*
%TO.C,R4*%
X147823000Y-94996000D03*
D16*
X150363000Y-94996000D03*
%TD*%
D17*
%TO.C,J3*%
X150393000Y-78755000D03*
D18*
X150393000Y-81295000D03*
X150393000Y-83835000D03*
%TD*%
D19*
%TO.C,R3*%
X147066000Y-83415500D03*
X147066000Y-85240500D03*
%TD*%
D20*
%TO.C,U1*%
X118110000Y-63500000D03*
X118110000Y-66040000D03*
X118110000Y-68580000D03*
X118110000Y-71120000D03*
X118110000Y-73660000D03*
X118110000Y-76200000D03*
X118110000Y-78740000D03*
X118110000Y-81280000D03*
X118110000Y-83820000D03*
X118110000Y-86360000D03*
X118110000Y-88900000D03*
X118110000Y-91440000D03*
X118110000Y-93980000D03*
X118110000Y-96520000D03*
X118110000Y-99060000D03*
X143510000Y-99060000D03*
X143510000Y-96520000D03*
X143510000Y-93980000D03*
X143510000Y-91440000D03*
X143510000Y-88900000D03*
X143510000Y-86360000D03*
X143510000Y-83820000D03*
X143510000Y-81280000D03*
X143510000Y-78740000D03*
X143510000Y-76200000D03*
X143510000Y-73660000D03*
X143510000Y-71120000D03*
X143510000Y-68580000D03*
X143510000Y-66040000D03*
X143510000Y-63500000D03*
%TD*%
D14*
%TO.C,R7*%
X148693500Y-71628000D03*
X150518500Y-71628000D03*
%TD*%
D21*
%TO.C,C1*%
X148590000Y-63207500D03*
X148590000Y-66332500D03*
%TD*%
%TO.C,C2*%
X113030000Y-63500000D03*
X113030000Y-66625000D03*
%TD*%
D17*
%TO.C,J2*%
X112141000Y-90805000D03*
D18*
X112141000Y-93345000D03*
X112141000Y-95885000D03*
X112141000Y-98425000D03*
%TD*%
D14*
%TO.C,R8*%
X148693500Y-74064000D03*
X150518500Y-74064000D03*
%TD*%
M02*
