%TF.GenerationSoftware,KiCad,Pcbnew,7.0.6*%
%TF.CreationDate,2024-09-24T20:19:06-04:00*%
%TF.ProjectId,ESP32_Temp_Humidity,45535033-325f-4546-956d-705f48756d69,rev?*%
%TF.SameCoordinates,Original*%
%TF.FileFunction,Copper,L1,Top*%
%TF.FilePolarity,Positive*%
%FSLAX46Y46*%
G04 Gerber Fmt 4.6, Leading zero omitted, Abs format (unit mm)*
G04 Created by KiCad (PCBNEW 7.0.6) date 2024-09-24 20:19:06*
%MOMM*%
%LPD*%
G01*
G04 APERTURE LIST*
G04 Aperture macros list*
%AMRoundRect*
0 Rectangle with rounded corners*
0 $1 Rounding radius*
0 $2 $3 $4 $5 $6 $7 $8 $9 X,Y pos of 4 corners*
0 Add a 4 corners polygon primitive as box body*
4,1,4,$2,$3,$4,$5,$6,$7,$8,$9,$2,$3,0*
0 Add four circle primitives for the rounded corners*
1,1,$1+$1,$2,$3*
1,1,$1+$1,$4,$5*
1,1,$1+$1,$6,$7*
1,1,$1+$1,$8,$9*
0 Add four rect primitives between the rounded corners*
20,1,$1+$1,$2,$3,$4,$5,0*
20,1,$1+$1,$4,$5,$6,$7,0*
20,1,$1+$1,$6,$7,$8,$9,0*
20,1,$1+$1,$8,$9,$2,$3,0*%
G04 Aperture macros list end*
%TA.AperFunction,SMDPad,CuDef*%
%ADD10R,4.699000X3.429000*%
%TD*%
%TA.AperFunction,SMDPad,CuDef*%
%ADD11R,1.100000X2.500000*%
%TD*%
%TA.AperFunction,ComponentPad*%
%ADD12O,1.900000X3.500000*%
%TD*%
%TA.AperFunction,SMDPad,CuDef*%
%ADD13RoundRect,0.237500X-0.250000X-0.237500X0.250000X-0.237500X0.250000X0.237500X-0.250000X0.237500X0*%
%TD*%
%TA.AperFunction,ComponentPad*%
%ADD14R,1.800000X1.800000*%
%TD*%
%TA.AperFunction,ComponentPad*%
%ADD15C,1.800000*%
%TD*%
%TA.AperFunction,ComponentPad*%
%ADD16R,1.700000X1.700000*%
%TD*%
%TA.AperFunction,ComponentPad*%
%ADD17O,1.700000X1.700000*%
%TD*%
%TA.AperFunction,SMDPad,CuDef*%
%ADD18RoundRect,0.237500X-0.237500X0.250000X-0.237500X-0.250000X0.237500X-0.250000X0.237500X0.250000X0*%
%TD*%
%TA.AperFunction,ComponentPad*%
%ADD19C,1.524000*%
%TD*%
%TA.AperFunction,SMDPad,CuDef*%
%ADD20RoundRect,0.250000X-1.100000X0.412500X-1.100000X-0.412500X1.100000X-0.412500X1.100000X0.412500X0*%
%TD*%
%TA.AperFunction,ViaPad*%
%ADD21C,0.800000*%
%TD*%
%TA.AperFunction,Conductor*%
%ADD22C,0.762000*%
%TD*%
%TA.AperFunction,Conductor*%
%ADD23C,0.250000*%
%TD*%
G04 APERTURE END LIST*
D10*
%TO.P,TP5,1,1*%
%TO.N,/PHOTORES*%
X149098000Y-101219000D03*
%TD*%
%TO.P,TP4,1,1*%
%TO.N,/MOTION_OUT*%
X149225000Y-88773000D03*
%TD*%
%TO.P,TP3,1,1*%
%TO.N,GND*%
X142367000Y-50673000D03*
%TD*%
%TO.P,TP2,1,1*%
%TO.N,+3.3V*%
X113030000Y-58039000D03*
%TD*%
%TO.P,TP1,1,1*%
%TO.N,+5V*%
X118872000Y-50927000D03*
%TD*%
D11*
%TO.P,J1,1,VBUS*%
%TO.N,+5V*%
X127310000Y-51560000D03*
%TO.P,J1,2,D-*%
%TO.N,unconnected-(J1-D--Pad2)*%
X129810000Y-51560000D03*
%TO.P,J1,3,D+*%
%TO.N,unconnected-(J1-D+-Pad3)*%
X131810000Y-51560000D03*
%TO.P,J1,4,GND*%
%TO.N,GND*%
X134310000Y-51560000D03*
D12*
%TO.P,J1,5,Shield*%
X125110000Y-48810000D03*
X136510000Y-48810000D03*
%TD*%
D13*
%TO.P,R2,1*%
%TO.N,+3.3V*%
X112014000Y-82804000D03*
%TO.P,R2,2*%
%TO.N,/SDA*%
X113839000Y-82804000D03*
%TD*%
%TO.P,R6,1*%
%TO.N,+5V*%
X112117500Y-72644000D03*
%TO.P,R6,2*%
%TO.N,/AHT21_PWR*%
X113942500Y-72644000D03*
%TD*%
%TO.P,R1,1*%
%TO.N,+3.3V*%
X112014000Y-86106000D03*
%TO.P,R1,2*%
%TO.N,/SCL*%
X113839000Y-86106000D03*
%TD*%
%TO.P,R5,1*%
%TO.N,+3.3V*%
X112117500Y-75976000D03*
%TO.P,R5,2*%
%TO.N,/AHT21_PWR*%
X113942500Y-75976000D03*
%TD*%
D14*
%TO.P,R4,1*%
%TO.N,/PHOTORES*%
X147823000Y-94996000D03*
D15*
%TO.P,R4,2*%
%TO.N,GND*%
X150363000Y-94996000D03*
%TD*%
D16*
%TO.P,J3,1,Pin_1*%
%TO.N,/AM312_PWR*%
X150393000Y-78755000D03*
D17*
%TO.P,J3,2,Pin_2*%
%TO.N,/MOTION_OUT*%
X150393000Y-81295000D03*
%TO.P,J3,3,Pin_3*%
%TO.N,GND*%
X150393000Y-83835000D03*
%TD*%
D18*
%TO.P,R3,1*%
%TO.N,+3.3V*%
X147066000Y-83415500D03*
%TO.P,R3,2*%
%TO.N,/PHOTORES*%
X147066000Y-85240500D03*
%TD*%
D19*
%TO.P,U1,1,+3.3V*%
%TO.N,+3.3V*%
X118110000Y-63500000D03*
%TO.P,U1,2,GND*%
%TO.N,GND*%
X118110000Y-66040000D03*
%TO.P,U1,3,GPIO15*%
%TO.N,unconnected-(U1-GPIO15-Pad3)*%
X118110000Y-68580000D03*
%TO.P,U1,4,GPIO2*%
%TO.N,unconnected-(U1-GPIO2-Pad4)*%
X118110000Y-71120000D03*
%TO.P,U1,5,GPIO4*%
%TO.N,unconnected-(U1-GPIO4-Pad5)*%
X118110000Y-73660000D03*
%TO.P,U1,6,GPIO16*%
%TO.N,unconnected-(U1-GPIO16-Pad6)*%
X118110000Y-76200000D03*
%TO.P,U1,7,GPIO17*%
%TO.N,unconnected-(U1-GPIO17-Pad7)*%
X118110000Y-78740000D03*
%TO.P,U1,8,GPIO5*%
%TO.N,unconnected-(U1-GPIO5-Pad8)*%
X118110000Y-81280000D03*
%TO.P,U1,9,GPIO18*%
%TO.N,unconnected-(U1-GPIO18-Pad9)*%
X118110000Y-83820000D03*
%TO.P,U1,10,GPIO19*%
%TO.N,unconnected-(U1-GPIO19-Pad10)*%
X118110000Y-86360000D03*
%TO.P,U1,11,GPIO21*%
%TO.N,/SDA*%
X118110000Y-88900000D03*
%TO.P,U1,12,GPIO3*%
%TO.N,unconnected-(U1-GPIO3-Pad12)*%
X118110000Y-91440000D03*
%TO.P,U1,13,GPIO1*%
%TO.N,unconnected-(U1-GPIO1-Pad13)*%
X118110000Y-93980000D03*
%TO.P,U1,14,GPIO22*%
%TO.N,/SCL*%
X118110000Y-96520000D03*
%TO.P,U1,15,GPIO23*%
%TO.N,unconnected-(U1-GPIO23-Pad15)*%
X118110000Y-99060000D03*
%TO.P,U1,16,EN*%
%TO.N,unconnected-(U1-EN-Pad16)*%
X143510000Y-99060000D03*
%TO.P,U1,17,GPIO36*%
%TO.N,/PHOTORES*%
X143510000Y-96520000D03*
%TO.P,U1,18,GPIO39*%
%TO.N,unconnected-(U1-GPIO39-Pad18)*%
X143510000Y-93980000D03*
%TO.P,U1,19,GPIO34*%
%TO.N,unconnected-(U1-GPIO34-Pad19)*%
X143510000Y-91440000D03*
%TO.P,U1,20,GPIO35*%
%TO.N,unconnected-(U1-GPIO35-Pad20)*%
X143510000Y-88900000D03*
%TO.P,U1,21,GPIO32*%
%TO.N,unconnected-(U1-GPIO32-Pad21)*%
X143510000Y-86360000D03*
%TO.P,U1,22,GPIO33*%
%TO.N,unconnected-(U1-GPIO33-Pad22)*%
X143510000Y-83820000D03*
%TO.P,U1,23,GPIO25*%
%TO.N,unconnected-(U1-GPIO25-Pad23)*%
X143510000Y-81280000D03*
%TO.P,U1,24,GPIO26*%
%TO.N,unconnected-(U1-GPIO26-Pad24)*%
X143510000Y-78740000D03*
%TO.P,U1,25,GPIO27*%
%TO.N,/MOTION_OUT*%
X143510000Y-76200000D03*
%TO.P,U1,26,GPIO14*%
%TO.N,unconnected-(U1-GPIO14-Pad26)*%
X143510000Y-73660000D03*
%TO.P,U1,27,GPIO12*%
%TO.N,unconnected-(U1-GPIO12-Pad27)*%
X143510000Y-71120000D03*
%TO.P,U1,28,GPIO13*%
%TO.N,unconnected-(U1-GPIO13-Pad28)*%
X143510000Y-68580000D03*
%TO.P,U1,29,GND*%
%TO.N,GND*%
X143510000Y-66040000D03*
%TO.P,U1,30,VIN*%
%TO.N,+5V*%
X143510000Y-63500000D03*
%TD*%
D13*
%TO.P,R7,1*%
%TO.N,+3.3V*%
X148693500Y-71628000D03*
%TO.P,R7,2*%
%TO.N,/AM312_PWR*%
X150518500Y-71628000D03*
%TD*%
D20*
%TO.P,C1,1*%
%TO.N,+5V*%
X148590000Y-63207500D03*
%TO.P,C1,2*%
%TO.N,GND*%
X148590000Y-66332500D03*
%TD*%
%TO.P,C2,1*%
%TO.N,+3.3V*%
X113030000Y-63500000D03*
%TO.P,C2,2*%
%TO.N,GND*%
X113030000Y-66625000D03*
%TD*%
D16*
%TO.P,J2,1,Pin_1*%
%TO.N,/AHT21_PWR*%
X112141000Y-90805000D03*
D17*
%TO.P,J2,2,Pin_2*%
%TO.N,GND*%
X112141000Y-93345000D03*
%TO.P,J2,3,Pin_3*%
%TO.N,/SCL*%
X112141000Y-95885000D03*
%TO.P,J2,4,Pin_4*%
%TO.N,/SDA*%
X112141000Y-98425000D03*
%TD*%
D13*
%TO.P,R8,1*%
%TO.N,+5V*%
X148693500Y-74064000D03*
%TO.P,R8,2*%
%TO.N,/AM312_PWR*%
X150518500Y-74064000D03*
%TD*%
D21*
%TO.N,+5V*%
X110490000Y-72644000D03*
X147066000Y-73025000D03*
%TD*%
D22*
%TO.N,+3.3V*%
X113030000Y-63500000D02*
X113030000Y-58039000D01*
%TO.N,GND*%
X141480000Y-51560000D02*
X142367000Y-50673000D01*
X134310000Y-51560000D02*
X141480000Y-51560000D01*
%TO.N,+5V*%
X119505000Y-51560000D02*
X118872000Y-50927000D01*
X127310000Y-51560000D02*
X119505000Y-51560000D01*
D23*
%TO.N,/MOTION_OUT*%
X147178000Y-81295000D02*
X150393000Y-81295000D01*
X145923000Y-82550000D02*
X147178000Y-81295000D01*
X145923000Y-83947000D02*
X145923000Y-82550000D01*
X148351000Y-84328000D02*
X146304000Y-84328000D01*
X146304000Y-84328000D02*
X145923000Y-83947000D01*
X149225000Y-88773000D02*
X149225000Y-85202000D01*
X149225000Y-85202000D02*
X148351000Y-84328000D01*
X147193000Y-79883000D02*
X143510000Y-76200000D01*
X147193000Y-81153000D02*
X147193000Y-79883000D01*
X147335000Y-81295000D02*
X147193000Y-81153000D01*
X150393000Y-81295000D02*
X147335000Y-81295000D01*
%TO.N,/PHOTORES*%
X145923000Y-93096000D02*
X147823000Y-94996000D01*
X145923000Y-86383500D02*
X145923000Y-93096000D01*
X147066000Y-85240500D02*
X145923000Y-86383500D01*
X149098000Y-96271000D02*
X147823000Y-94996000D01*
X149098000Y-101219000D02*
X149098000Y-96271000D01*
%TO.N,+3.3V*%
X151130000Y-70612000D02*
X149709500Y-70612000D01*
X151765000Y-82042000D02*
X151765000Y-71247000D01*
X151765000Y-71247000D02*
X151130000Y-70612000D01*
X151257000Y-82550000D02*
X151765000Y-82042000D01*
X147931500Y-82550000D02*
X151257000Y-82550000D01*
X149709500Y-70612000D02*
X148693500Y-71628000D01*
X147066000Y-83415500D02*
X147931500Y-82550000D01*
%TO.N,/PHOTORES*%
X146299000Y-96520000D02*
X147823000Y-94996000D01*
X143510000Y-96520000D02*
X146299000Y-96520000D01*
%TO.N,+5V*%
X110490000Y-72644000D02*
X112117500Y-72644000D01*
X148105000Y-74064000D02*
X147066000Y-73025000D01*
X148693500Y-74064000D02*
X148105000Y-74064000D01*
D22*
%TO.N,GND*%
X134310000Y-51010000D02*
X136510000Y-48810000D01*
X134310000Y-51560000D02*
X134310000Y-51010000D01*
D23*
%TO.N,+3.3V*%
X124460000Y-69850000D02*
X118110000Y-63500000D01*
X146915500Y-69850000D02*
X124460000Y-69850000D01*
X148693500Y-71628000D02*
X146915500Y-69850000D01*
X112268000Y-63500000D02*
X113030000Y-63500000D01*
X110998000Y-64770000D02*
X112268000Y-63500000D01*
X110998000Y-67691000D02*
X110998000Y-64770000D01*
X115062000Y-76581000D02*
X115062000Y-71755000D01*
X113230500Y-77089000D02*
X114554000Y-77089000D01*
X114554000Y-77089000D02*
X115062000Y-76581000D01*
X115062000Y-71755000D02*
X110998000Y-67691000D01*
X112117500Y-75976000D02*
X113230500Y-77089000D01*
D22*
%TO.N,+5V*%
X143510000Y-63500000D02*
X148297500Y-63500000D01*
X127310000Y-52253000D02*
X138557000Y-63500000D01*
D23*
X148297500Y-63500000D02*
X148590000Y-63207500D01*
D22*
X127310000Y-51560000D02*
X127310000Y-52253000D01*
X138557000Y-63500000D02*
X143510000Y-63500000D01*
%TO.N,GND*%
X115874000Y-66625000D02*
X116459000Y-66040000D01*
X148297500Y-66040000D02*
X148170500Y-66167000D01*
X143637000Y-66167000D02*
X143510000Y-66040000D01*
D23*
X148590000Y-66332500D02*
X148297500Y-66040000D01*
D22*
X134310000Y-51560000D02*
X134310000Y-52268000D01*
X113030000Y-66625000D02*
X115874000Y-66625000D01*
X151257000Y-61882895D02*
X151257000Y-64262000D01*
X142240000Y-60198000D02*
X149572105Y-60198000D01*
X149186500Y-66332500D02*
X148590000Y-66332500D01*
X148170500Y-66167000D02*
X143637000Y-66167000D01*
X134310000Y-52268000D02*
X142240000Y-60198000D01*
X151257000Y-64262000D02*
X149186500Y-66332500D01*
X149572105Y-60198000D02*
X151257000Y-61882895D01*
X116459000Y-66040000D02*
X118110000Y-66040000D01*
D23*
%TO.N,+3.3V*%
X112014000Y-76079500D02*
X112117500Y-75976000D01*
D22*
X118110000Y-63500000D02*
X113030000Y-63500000D01*
D23*
X112014000Y-86106000D02*
X112014000Y-76079500D01*
%TO.N,/AHT21_PWR*%
X111633000Y-74930000D02*
X110744000Y-75819000D01*
X113942500Y-75976000D02*
X113942500Y-72644000D01*
X110744000Y-75819000D02*
X110744000Y-89408000D01*
X110744000Y-89408000D02*
X112141000Y-90805000D01*
X113942500Y-75976000D02*
X112896500Y-74930000D01*
X112896500Y-74930000D02*
X111633000Y-74930000D01*
%TO.N,/SCL*%
X113839000Y-94187000D02*
X112141000Y-95885000D01*
X117475000Y-95885000D02*
X118110000Y-96520000D01*
X112141000Y-95885000D02*
X117475000Y-95885000D01*
X113839000Y-86106000D02*
X113839000Y-94187000D01*
%TO.N,/SDA*%
X120904000Y-91694000D02*
X118110000Y-88900000D01*
X115443000Y-101727000D02*
X117856000Y-101727000D01*
X118110000Y-88900000D02*
X115189000Y-85979000D01*
X120904000Y-98679000D02*
X120904000Y-91694000D01*
X112141000Y-98425000D02*
X115443000Y-101727000D01*
X117856000Y-101727000D02*
X120904000Y-98679000D01*
X115189000Y-84154000D02*
X113839000Y-82804000D01*
X115189000Y-85979000D02*
X115189000Y-84154000D01*
%TO.N,/AM312_PWR*%
X150518500Y-71628000D02*
X150393000Y-71753500D01*
X150393000Y-71753500D02*
X150393000Y-78755000D01*
%TD*%
M02*
