%TF.GenerationSoftware,KiCad,Pcbnew,7.0.6*%
%TF.CreationDate,2024-09-24T20:19:06-04:00*%
%TF.ProjectId,ESP32_Temp_Humidity,45535033-325f-4546-956d-705f48756d69,rev?*%
%TF.SameCoordinates,Original*%
%TF.FileFunction,Copper,L2,Bot*%
%TF.FilePolarity,Positive*%
%FSLAX46Y46*%
G04 Gerber Fmt 4.6, Leading zero omitted, Abs format (unit mm)*
G04 Created by KiCad (PCBNEW 7.0.6) date 2024-09-24 20:19:06*
%MOMM*%
%LPD*%
G01*
G04 APERTURE LIST*
%TA.AperFunction,ComponentPad*%
%ADD10O,1.900000X3.500000*%
%TD*%
%TA.AperFunction,ComponentPad*%
%ADD11R,1.800000X1.800000*%
%TD*%
%TA.AperFunction,ComponentPad*%
%ADD12C,1.800000*%
%TD*%
%TA.AperFunction,ComponentPad*%
%ADD13R,1.700000X1.700000*%
%TD*%
%TA.AperFunction,ComponentPad*%
%ADD14O,1.700000X1.700000*%
%TD*%
%TA.AperFunction,ComponentPad*%
%ADD15C,1.524000*%
%TD*%
%TA.AperFunction,ViaPad*%
%ADD16C,0.800000*%
%TD*%
%TA.AperFunction,Conductor*%
%ADD17C,0.762000*%
%TD*%
%TA.AperFunction,Conductor*%
%ADD18C,0.250000*%
%TD*%
G04 APERTURE END LIST*
D10*
%TO.P,J1,5,Shield*%
%TO.N,GND*%
X125110000Y-48810000D03*
X136510000Y-48810000D03*
%TD*%
D11*
%TO.P,R4,1*%
%TO.N,/PHOTORES*%
X147823000Y-94996000D03*
D12*
%TO.P,R4,2*%
%TO.N,GND*%
X150363000Y-94996000D03*
%TD*%
D13*
%TO.P,J3,1,Pin_1*%
%TO.N,/AM312_PWR*%
X150393000Y-78755000D03*
D14*
%TO.P,J3,2,Pin_2*%
%TO.N,/MOTION_OUT*%
X150393000Y-81295000D03*
%TO.P,J3,3,Pin_3*%
%TO.N,GND*%
X150393000Y-83835000D03*
%TD*%
D15*
%TO.P,U1,1,+3.3V*%
%TO.N,+3.3V*%
X118110000Y-63500000D03*
%TO.P,U1,2,GND*%
%TO.N,GND*%
X118110000Y-66040000D03*
%TO.P,U1,3,GPIO15*%
%TO.N,unconnected-(U1-GPIO15-Pad3)*%
X118110000Y-68580000D03*
%TO.P,U1,4,GPIO2*%
%TO.N,unconnected-(U1-GPIO2-Pad4)*%
X118110000Y-71120000D03*
%TO.P,U1,5,GPIO4*%
%TO.N,unconnected-(U1-GPIO4-Pad5)*%
X118110000Y-73660000D03*
%TO.P,U1,6,GPIO16*%
%TO.N,unconnected-(U1-GPIO16-Pad6)*%
X118110000Y-76200000D03*
%TO.P,U1,7,GPIO17*%
%TO.N,unconnected-(U1-GPIO17-Pad7)*%
X118110000Y-78740000D03*
%TO.P,U1,8,GPIO5*%
%TO.N,unconnected-(U1-GPIO5-Pad8)*%
X118110000Y-81280000D03*
%TO.P,U1,9,GPIO18*%
%TO.N,unconnected-(U1-GPIO18-Pad9)*%
X118110000Y-83820000D03*
%TO.P,U1,10,GPIO19*%
%TO.N,unconnected-(U1-GPIO19-Pad10)*%
X118110000Y-86360000D03*
%TO.P,U1,11,GPIO21*%
%TO.N,/SDA*%
X118110000Y-88900000D03*
%TO.P,U1,12,GPIO3*%
%TO.N,unconnected-(U1-GPIO3-Pad12)*%
X118110000Y-91440000D03*
%TO.P,U1,13,GPIO1*%
%TO.N,unconnected-(U1-GPIO1-Pad13)*%
X118110000Y-93980000D03*
%TO.P,U1,14,GPIO22*%
%TO.N,/SCL*%
X118110000Y-96520000D03*
%TO.P,U1,15,GPIO23*%
%TO.N,unconnected-(U1-GPIO23-Pad15)*%
X118110000Y-99060000D03*
%TO.P,U1,16,EN*%
%TO.N,unconnected-(U1-EN-Pad16)*%
X143510000Y-99060000D03*
%TO.P,U1,17,GPIO36*%
%TO.N,/PHOTORES*%
X143510000Y-96520000D03*
%TO.P,U1,18,GPIO39*%
%TO.N,unconnected-(U1-GPIO39-Pad18)*%
X143510000Y-93980000D03*
%TO.P,U1,19,GPIO34*%
%TO.N,unconnected-(U1-GPIO34-Pad19)*%
X143510000Y-91440000D03*
%TO.P,U1,20,GPIO35*%
%TO.N,unconnected-(U1-GPIO35-Pad20)*%
X143510000Y-88900000D03*
%TO.P,U1,21,GPIO32*%
%TO.N,unconnected-(U1-GPIO32-Pad21)*%
X143510000Y-86360000D03*
%TO.P,U1,22,GPIO33*%
%TO.N,unconnected-(U1-GPIO33-Pad22)*%
X143510000Y-83820000D03*
%TO.P,U1,23,GPIO25*%
%TO.N,unconnected-(U1-GPIO25-Pad23)*%
X143510000Y-81280000D03*
%TO.P,U1,24,GPIO26*%
%TO.N,unconnected-(U1-GPIO26-Pad24)*%
X143510000Y-78740000D03*
%TO.P,U1,25,GPIO27*%
%TO.N,/MOTION_OUT*%
X143510000Y-76200000D03*
%TO.P,U1,26,GPIO14*%
%TO.N,unconnected-(U1-GPIO14-Pad26)*%
X143510000Y-73660000D03*
%TO.P,U1,27,GPIO12*%
%TO.N,unconnected-(U1-GPIO12-Pad27)*%
X143510000Y-71120000D03*
%TO.P,U1,28,GPIO13*%
%TO.N,unconnected-(U1-GPIO13-Pad28)*%
X143510000Y-68580000D03*
%TO.P,U1,29,GND*%
%TO.N,GND*%
X143510000Y-66040000D03*
%TO.P,U1,30,VIN*%
%TO.N,+5V*%
X143510000Y-63500000D03*
%TD*%
D13*
%TO.P,J2,1,Pin_1*%
%TO.N,/AHT21_PWR*%
X112141000Y-90805000D03*
D14*
%TO.P,J2,2,Pin_2*%
%TO.N,GND*%
X112141000Y-93345000D03*
%TO.P,J2,3,Pin_3*%
%TO.N,/SCL*%
X112141000Y-95885000D03*
%TO.P,J2,4,Pin_4*%
%TO.N,/SDA*%
X112141000Y-98425000D03*
%TD*%
D16*
%TO.N,+5V*%
X110490000Y-72644000D03*
X147066000Y-73025000D03*
%TD*%
D17*
%TO.N,GND*%
X150393000Y-83835000D02*
X150393000Y-94966000D01*
X150393000Y-94966000D02*
X150363000Y-94996000D01*
D18*
%TO.N,+5V*%
X110490000Y-71628000D02*
X110490000Y-72644000D01*
X117348000Y-64770000D02*
X110490000Y-71628000D01*
X142240000Y-64770000D02*
X117348000Y-64770000D01*
X143510000Y-63500000D02*
X142240000Y-64770000D01*
X147066000Y-73025000D02*
X147066000Y-67056000D01*
X147066000Y-67056000D02*
X143510000Y-63500000D01*
D17*
%TO.N,GND*%
X134620000Y-51054000D02*
X126619000Y-51054000D01*
X136510000Y-49164000D02*
X134620000Y-51054000D01*
X125110000Y-49545000D02*
X125110000Y-48810000D01*
X136510000Y-48810000D02*
X136510000Y-49164000D01*
X126619000Y-51054000D02*
X125110000Y-49545000D01*
X143510000Y-66040000D02*
X145796000Y-68326000D01*
X145796000Y-68326000D02*
X145796000Y-79238000D01*
X145796000Y-79238000D02*
X150393000Y-83835000D01*
X118110000Y-66040000D02*
X143510000Y-66040000D01*
X114173000Y-91313000D02*
X112141000Y-93345000D01*
X118110000Y-66040000D02*
X114173000Y-69977000D01*
X114173000Y-69977000D02*
X114173000Y-91313000D01*
%TD*%
M02*
